M48
; DRILL file {KiCad 9.0.1} date 2026-04-08T20:31:26+0200
; FORMAT={-:-/ absolute / inch / decimal}
; #@! TF.CreationDate,2026-04-08T20:31:26+02:00
; #@! TF.GenerationSoftware,Kicad,Pcbnew,9.0.1
; #@! TF.FileFunction,Plated,1,2,PTH
FMAT,2
INCH
; #@! TA.AperFunction,Plated,PTH,ComponentDrill
T1C0.0315
; #@! TA.AperFunction,Plated,PTH,ComponentDrill
T2C0.0394
; #@! TA.AperFunction,Plated,PTH,ComponentDrill
T3C0.0472
; #@! TA.AperFunction,Plated,PTH,ComponentDrill
T4C0.0512
%
G90
G05
T1
X4.5016Y-3.75
X4.5016Y-3.8484
X4.7016Y-3.75
X4.7016Y-3.8484
X5.75Y-4.0016
X5.75Y-4.1
X5.8Y-4.25
X5.8Y-4.3484
X5.85Y-3.7
X5.85Y-3.8
X5.85Y-3.9
X5.85Y-4.0
X6.15Y-3.7
X6.15Y-3.8
X6.15Y-3.9
X6.15Y-4.0
X6.25Y-3.8516
X6.25Y-3.95
X6.25Y-4.25
X6.25Y-4.3484
T2
X4.3016Y-3.75
X5.0016Y-3.8
X5.0016Y-4.0
X7.35Y-3.9
X7.35Y-4.2
T3
X4.1016Y-3.0
X4.1016Y-3.6
X4.4516Y-3.0
X4.4516Y-3.6
X4.7016Y-3.0
X4.7016Y-3.6
X5.0016Y-3.0
X5.0016Y-3.6
X5.7Y-3.3
X5.7Y-3.9
X6.45Y-3.9
X7.05Y-3.9
T4
X5.3016Y-3.1031
X5.3016Y-3.4969
X5.4984Y-3.3
M30
