%TF.GenerationSoftware,KiCad,Pcbnew,9.0.1*%
%TF.CreationDate,2026-04-08T20:31:03+02:00*%
%TF.ProjectId,styra_insp_nning 2,73747972-615f-4696-9e73-70e46e6e696e,rev?*%
%TF.SameCoordinates,Original*%
%TF.FileFunction,Copper,L2,Bot*%
%TF.FilePolarity,Positive*%
%FSLAX46Y46*%
G04 Gerber Fmt 4.6, Leading zero omitted, Abs format (unit mm)*
G04 Created by KiCad (PCBNEW 9.0.1) date 2026-04-08 20:31:03*
%MOMM*%
%LPD*%
G01*
G04 APERTURE LIST*
G04 Aperture macros list*
%AMRoundRect*
0 Rectangle with rounded corners*
0 $1 Rounding radius*
0 $2 $3 $4 $5 $6 $7 $8 $9 X,Y pos of 4 corners*
0 Add a 4 corners polygon primitive as box body*
4,1,4,$2,$3,$4,$5,$6,$7,$8,$9,$2,$3,0*
0 Add four circle primitives for the rounded corners*
1,1,$1+$1,$2,$3*
1,1,$1+$1,$4,$5*
1,1,$1+$1,$6,$7*
1,1,$1+$1,$8,$9*
0 Add four rect primitives between the rounded corners*
20,1,$1+$1,$2,$3,$4,$5,0*
20,1,$1+$1,$4,$5,$6,$7,0*
20,1,$1+$1,$6,$7,$8,$9,0*
20,1,$1+$1,$8,$9,$2,$3,0*%
G04 Aperture macros list end*
%TA.AperFunction,ComponentPad*%
%ADD10C,2.400000*%
%TD*%
%TA.AperFunction,ComponentPad*%
%ADD11O,2.400000X2.400000*%
%TD*%
%TA.AperFunction,ComponentPad*%
%ADD12C,1.600000*%
%TD*%
%TA.AperFunction,ComponentPad*%
%ADD13C,2.000000*%
%TD*%
%TA.AperFunction,ComponentPad*%
%ADD14R,1.600000X1.600000*%
%TD*%
%TA.AperFunction,ComponentPad*%
%ADD15C,2.340000*%
%TD*%
%TA.AperFunction,ComponentPad*%
%ADD16RoundRect,0.250000X-0.550000X-0.550000X0.550000X-0.550000X0.550000X0.550000X-0.550000X0.550000X0*%
%TD*%
%TA.AperFunction,Conductor*%
%ADD17C,0.200000*%
%TD*%
G04 APERTURE END LIST*
D10*
%TO.P,R3,1*%
%TO.N,/REF*%
X113070000Y-91440000D03*
D11*
%TO.P,R3,2*%
%TO.N,/REF_N*%
X113070000Y-76200000D03*
%TD*%
D10*
%TO.P,R4,1*%
%TO.N,/REF_N*%
X104180000Y-76200000D03*
D11*
%TO.P,R4,2*%
%TO.N,/-12V*%
X104180000Y-91440000D03*
%TD*%
D10*
%TO.P,R5,1*%
%TO.N,/BIAS_SET*%
X144780000Y-99060000D03*
D11*
%TO.P,R5,2*%
%TO.N,Net-(R5-Pad2)*%
X144780000Y-83820000D03*
%TD*%
D10*
%TO.P,R2,1*%
%TO.N,/REF*%
X119420000Y-91440000D03*
D11*
%TO.P,R2,2*%
%TO.N,/REF_P*%
X119420000Y-76200000D03*
%TD*%
D10*
%TO.P,R1,1*%
%TO.N,/REF_P*%
X127040000Y-76200000D03*
D11*
%TO.P,R1,2*%
%TO.N,/+12V*%
X127040000Y-91440000D03*
%TD*%
D12*
%TO.P,C2,1*%
%TO.N,/REF*%
X146050000Y-104140000D03*
%TO.P,C2,2*%
%TO.N,/-12V*%
X146050000Y-101640000D03*
%TD*%
D13*
%TO.P,Power0,1,Pin_1*%
%TO.N,/REF*%
X109260000Y-95250000D03*
%TD*%
%TO.P,-12V1,1,Pin_1*%
%TO.N,/-12V*%
X127040000Y-101600000D03*
%TD*%
D14*
%TO.P,C4,1*%
%TO.N,/-12V*%
X147320000Y-110450000D03*
D12*
%TO.P,C4,2*%
%TO.N,/REF*%
X147320000Y-107950000D03*
%TD*%
D13*
%TO.P,OUT-0,1,Pin_1*%
%TO.N,/REF*%
X186690000Y-106680000D03*
%TD*%
D10*
%TO.P,R6,1*%
%TO.N,/feedback*%
X163830000Y-99060000D03*
D11*
%TO.P,R6,2*%
%TO.N,/BIAS_OUT*%
X179070000Y-99060000D03*
%TD*%
D14*
%TO.P,C3,1*%
%TO.N,/+12V*%
X158750000Y-110450000D03*
D12*
%TO.P,C3,2*%
%TO.N,/REF*%
X158750000Y-107950000D03*
%TD*%
D15*
%TO.P,RV1,1,1*%
%TO.N,/REF_P*%
X134660000Y-78820000D03*
%TO.P,RV1,2,2*%
%TO.N,Net-(R5-Pad2)*%
X139660000Y-83820000D03*
%TO.P,RV1,3,3*%
%TO.N,/REF_N*%
X134660000Y-88820000D03*
%TD*%
D16*
%TO.P,U1,1,NULL*%
%TO.N,unconnected-(U1-NULL-Pad1)*%
X148590000Y-93980000D03*
D12*
%TO.P,U1,2,-*%
%TO.N,/feedback*%
X148590000Y-96520000D03*
%TO.P,U1,3,+*%
%TO.N,/BIAS_SET*%
X148590000Y-99060000D03*
%TO.P,U1,4,V-*%
%TO.N,/-12V*%
X148590000Y-101600000D03*
%TO.P,U1,5,NULL*%
%TO.N,unconnected-(U1-NULL-Pad5)*%
X156210000Y-101600000D03*
%TO.P,U1,6*%
%TO.N,/feedback*%
X156210000Y-99060000D03*
%TO.P,U1,7,V+*%
%TO.N,/+12V*%
X156210000Y-96520000D03*
%TO.P,U1,8,Subst.*%
%TO.N,unconnected-(U1-Subst.-Pad8)*%
X156210000Y-93980000D03*
%TD*%
%TO.P,C1,1*%
%TO.N,/REF*%
X158750000Y-100330000D03*
%TO.P,C1,2*%
%TO.N,/+12V*%
X158750000Y-97830000D03*
%TD*%
D13*
%TO.P,+12V1,1,Pin_1*%
%TO.N,/+12V*%
X127040000Y-96520000D03*
%TD*%
%TO.P,Bias_out1,1,Pin_1*%
%TO.N,/BIAS_OUT*%
X186690000Y-99060000D03*
%TD*%
D12*
%TO.P,C6,1*%
%TO.N,/REF*%
X114340000Y-95250000D03*
%TO.P,C6,2*%
%TO.N,/REF_N*%
X114340000Y-97750000D03*
%TD*%
%TO.P,C5,1*%
%TO.N,/REF*%
X119420000Y-95250000D03*
%TO.P,C5,2*%
%TO.N,/REF_P*%
X119420000Y-97750000D03*
%TD*%
D17*
%TO.N,/+12V*%
X147032950Y-96520000D02*
X148302950Y-97790000D01*
X158750000Y-110450000D02*
X155109000Y-106809000D01*
X127040000Y-91440000D02*
X127040000Y-96520000D01*
X155109000Y-106809000D02*
X155109000Y-98603950D01*
X155109000Y-98603950D02*
X155882950Y-97830000D01*
X155882950Y-97830000D02*
X158750000Y-97830000D01*
X127040000Y-96520000D02*
X147032950Y-96520000D01*
X148302950Y-97790000D02*
X154295050Y-97790000D01*
X154295050Y-97790000D02*
X155109000Y-98603950D01*
%TO.N,/-12V*%
X146010000Y-101600000D02*
X146050000Y-101640000D01*
X147320000Y-110450000D02*
X148590000Y-109180000D01*
X146050000Y-101640000D02*
X148550000Y-101640000D01*
X148550000Y-101640000D02*
X148590000Y-101600000D01*
X127040000Y-101600000D02*
X146010000Y-101600000D01*
X148590000Y-109180000D02*
X148590000Y-101600000D01*
%TO.N,/BIAS_OUT*%
X186690000Y-99060000D02*
X179070000Y-99060000D01*
%TO.N,/REF_P*%
X119420000Y-76200000D02*
X117919000Y-74699000D01*
X118319000Y-98851000D02*
X119420000Y-97750000D01*
X134660000Y-78820000D02*
X129660000Y-78820000D01*
X129660000Y-78820000D02*
X127040000Y-76200000D01*
X117919000Y-74699000D02*
X112448265Y-74699000D01*
X111569000Y-96536050D02*
X113883950Y-98851000D01*
X119420000Y-76200000D02*
X127040000Y-76200000D01*
X111569000Y-75578265D02*
X111569000Y-96536050D01*
X112448265Y-74699000D02*
X111569000Y-75578265D01*
X113883950Y-98851000D02*
X118319000Y-98851000D01*
%TO.N,/REF_N*%
X124292950Y-88820000D02*
X115362950Y-97750000D01*
X124292950Y-87422950D02*
X124292950Y-88820000D01*
X134660000Y-88820000D02*
X124292950Y-88820000D01*
X115362950Y-97750000D02*
X114340000Y-97750000D01*
X113070000Y-76200000D02*
X124292950Y-87422950D01*
%TO.N,/feedback*%
X163830000Y-99060000D02*
X156210000Y-99060000D01*
%TD*%
M02*
