%TF.GenerationSoftware,KiCad,Pcbnew,9.0.1*%
%TF.CreationDate,2025-04-21T17:52:03+02:00*%
%TF.ProjectId,learn_pcb,6c656172-6e5f-4706-9362-2e6b69636164,rev?*%
%TF.SameCoordinates,Original*%
%TF.FileFunction,Drillmap*%
%TF.FilePolarity,Positive*%
%FSLAX45Y45*%
G04 Gerber Fmt 4.5, Leading zero omitted, Abs format (unit mm)*
G04 Created by KiCad (PCBNEW 9.0.1) date 2025-04-21 17:52:03*
%MOMM*%
%LPD*%
G01*
G04 APERTURE LIST*
%ADD10C,0.050000*%
%ADD11C,0.200000*%
%ADD12C,0.100000*%
%ADD13C,0.110000*%
G04 APERTURE END LIST*
D10*
X14100000Y-5000000D02*
X6850000Y-5000000D01*
X14100000Y-11200000D02*
X14100000Y-5000000D01*
X6850000Y-11200000D02*
X14100000Y-11200000D01*
X6850000Y-5000000D02*
X6850000Y-11200000D01*
D11*
D12*
X10525000Y-5760000D02*
X10605000Y-5840000D01*
X10605000Y-5760000D02*
X10525000Y-5840000D01*
X11795000Y-5760000D02*
X11875000Y-5840000D01*
X11875000Y-5760000D02*
X11795000Y-5840000D01*
X12745000Y-5800000D02*
G75*
G02*
X12655000Y-5800000I-45000J0D01*
G01*
X12655000Y-5800000D02*
G75*
G02*
X12745000Y-5800000I45000J0D01*
G01*
X12999000Y-5800000D02*
G75*
G02*
X12909000Y-5800000I-45000J0D01*
G01*
X12909000Y-5800000D02*
G75*
G02*
X12999000Y-5800000I45000J0D01*
G01*
X7926000Y-5894000D02*
X7926000Y-5994000D01*
X7876000Y-5944000D02*
X7976000Y-5944000D01*
X7926000Y-6148000D02*
X7926000Y-6248000D01*
X7876000Y-6198000D02*
X7976000Y-6198000D01*
X7926000Y-6402000D02*
X7926000Y-6502000D01*
X7876000Y-6452000D02*
X7976000Y-6452000D01*
X7926000Y-6656000D02*
X7926000Y-6756000D01*
X7876000Y-6706000D02*
X7976000Y-6706000D01*
X7926000Y-6910000D02*
X7926000Y-7010000D01*
X7876000Y-6960000D02*
X7976000Y-6960000D01*
X7926000Y-7164000D02*
X7926000Y-7264000D01*
X7876000Y-7214000D02*
X7976000Y-7214000D01*
X7926000Y-7418000D02*
X7926000Y-7518000D01*
X7876000Y-7468000D02*
X7976000Y-7468000D01*
X7926000Y-7672000D02*
X7926000Y-7772000D01*
X7876000Y-7722000D02*
X7976000Y-7722000D01*
X7926000Y-7926000D02*
X7926000Y-8026000D01*
X7876000Y-7976000D02*
X7976000Y-7976000D01*
X7926000Y-8180000D02*
X7926000Y-8280000D01*
X7876000Y-8230000D02*
X7976000Y-8230000D01*
X7926000Y-8434000D02*
X7926000Y-8534000D01*
X7876000Y-8484000D02*
X7976000Y-8484000D01*
X7926000Y-8688000D02*
X7926000Y-8788000D01*
X7876000Y-8738000D02*
X7976000Y-8738000D01*
X7926000Y-8942000D02*
X7926000Y-9042000D01*
X7876000Y-8992000D02*
X7976000Y-8992000D01*
X7926000Y-9196000D02*
X7926000Y-9296000D01*
X7876000Y-9246000D02*
X7976000Y-9246000D01*
X7926000Y-9450000D02*
X7926000Y-9550000D01*
X7876000Y-9500000D02*
X7976000Y-9500000D01*
X9450000Y-5894000D02*
X9450000Y-5994000D01*
X9400000Y-5944000D02*
X9500000Y-5944000D01*
X9450000Y-6148000D02*
X9450000Y-6248000D01*
X9400000Y-6198000D02*
X9500000Y-6198000D01*
X9450000Y-6402000D02*
X9450000Y-6502000D01*
X9400000Y-6452000D02*
X9500000Y-6452000D01*
X9450000Y-6656000D02*
X9450000Y-6756000D01*
X9400000Y-6706000D02*
X9500000Y-6706000D01*
X9450000Y-6910000D02*
X9450000Y-7010000D01*
X9400000Y-6960000D02*
X9500000Y-6960000D01*
X9450000Y-7164000D02*
X9450000Y-7264000D01*
X9400000Y-7214000D02*
X9500000Y-7214000D01*
X9450000Y-7418000D02*
X9450000Y-7518000D01*
X9400000Y-7468000D02*
X9500000Y-7468000D01*
X9450000Y-7672000D02*
X9450000Y-7772000D01*
X9400000Y-7722000D02*
X9500000Y-7722000D01*
X9450000Y-7926000D02*
X9450000Y-8026000D01*
X9400000Y-7976000D02*
X9500000Y-7976000D01*
X9450000Y-8180000D02*
X9450000Y-8280000D01*
X9400000Y-8230000D02*
X9500000Y-8230000D01*
X9450000Y-8434000D02*
X9450000Y-8534000D01*
X9400000Y-8484000D02*
X9500000Y-8484000D01*
X9450000Y-8688000D02*
X9450000Y-8788000D01*
X9400000Y-8738000D02*
X9500000Y-8738000D01*
X9450000Y-8942000D02*
X9450000Y-9042000D01*
X9400000Y-8992000D02*
X9500000Y-8992000D01*
X9450000Y-9196000D02*
X9450000Y-9296000D01*
X9400000Y-9246000D02*
X9500000Y-9246000D01*
X9450000Y-9450000D02*
X9450000Y-9550000D01*
X9400000Y-9500000D02*
X9500000Y-9500000D01*
D13*
X10913891Y-7263891D02*
X10913891Y-7186109D01*
X10836109Y-7186109D01*
X10836109Y-7263891D01*
X10913891Y-7263891D01*
X10913891Y-7713891D02*
X10913891Y-7636109D01*
X10836109Y-7636109D01*
X10836109Y-7713891D01*
X10913891Y-7713891D01*
X11563891Y-7263891D02*
X11563891Y-7186109D01*
X11486109Y-7186109D01*
X11486109Y-7263891D01*
X11563891Y-7263891D01*
X11563891Y-7713891D02*
X11563891Y-7636109D01*
X11486109Y-7636109D01*
X11486109Y-7713891D01*
X11563891Y-7713891D01*
D11*
X7108277Y-11513984D02*
X7108277Y-11313984D01*
X7108277Y-11313984D02*
X7155896Y-11313984D01*
X7155896Y-11313984D02*
X7184467Y-11323508D01*
X7184467Y-11323508D02*
X7203515Y-11342555D01*
X7203515Y-11342555D02*
X7213039Y-11361603D01*
X7213039Y-11361603D02*
X7222562Y-11399698D01*
X7222562Y-11399698D02*
X7222562Y-11428269D01*
X7222562Y-11428269D02*
X7213039Y-11466365D01*
X7213039Y-11466365D02*
X7203515Y-11485412D01*
X7203515Y-11485412D02*
X7184467Y-11504460D01*
X7184467Y-11504460D02*
X7155896Y-11513984D01*
X7155896Y-11513984D02*
X7108277Y-11513984D01*
X7308277Y-11513984D02*
X7308277Y-11380650D01*
X7308277Y-11418746D02*
X7317801Y-11399698D01*
X7317801Y-11399698D02*
X7327324Y-11390174D01*
X7327324Y-11390174D02*
X7346372Y-11380650D01*
X7346372Y-11380650D02*
X7365420Y-11380650D01*
X7432086Y-11513984D02*
X7432086Y-11380650D01*
X7432086Y-11313984D02*
X7422562Y-11323508D01*
X7422562Y-11323508D02*
X7432086Y-11333031D01*
X7432086Y-11333031D02*
X7441610Y-11323508D01*
X7441610Y-11323508D02*
X7432086Y-11313984D01*
X7432086Y-11313984D02*
X7432086Y-11333031D01*
X7555896Y-11513984D02*
X7536848Y-11504460D01*
X7536848Y-11504460D02*
X7527324Y-11485412D01*
X7527324Y-11485412D02*
X7527324Y-11313984D01*
X7660658Y-11513984D02*
X7641610Y-11504460D01*
X7641610Y-11504460D02*
X7632086Y-11485412D01*
X7632086Y-11485412D02*
X7632086Y-11313984D01*
X7889229Y-11513984D02*
X7889229Y-11313984D01*
X7889229Y-11313984D02*
X7955896Y-11456841D01*
X7955896Y-11456841D02*
X8022562Y-11313984D01*
X8022562Y-11313984D02*
X8022562Y-11513984D01*
X8203515Y-11513984D02*
X8203515Y-11409222D01*
X8203515Y-11409222D02*
X8193991Y-11390174D01*
X8193991Y-11390174D02*
X8174943Y-11380650D01*
X8174943Y-11380650D02*
X8136848Y-11380650D01*
X8136848Y-11380650D02*
X8117801Y-11390174D01*
X8203515Y-11504460D02*
X8184467Y-11513984D01*
X8184467Y-11513984D02*
X8136848Y-11513984D01*
X8136848Y-11513984D02*
X8117801Y-11504460D01*
X8117801Y-11504460D02*
X8108277Y-11485412D01*
X8108277Y-11485412D02*
X8108277Y-11466365D01*
X8108277Y-11466365D02*
X8117801Y-11447317D01*
X8117801Y-11447317D02*
X8136848Y-11437793D01*
X8136848Y-11437793D02*
X8184467Y-11437793D01*
X8184467Y-11437793D02*
X8203515Y-11428269D01*
X8298753Y-11380650D02*
X8298753Y-11580650D01*
X8298753Y-11390174D02*
X8317801Y-11380650D01*
X8317801Y-11380650D02*
X8355896Y-11380650D01*
X8355896Y-11380650D02*
X8374943Y-11390174D01*
X8374943Y-11390174D02*
X8384467Y-11399698D01*
X8384467Y-11399698D02*
X8393991Y-11418746D01*
X8393991Y-11418746D02*
X8393991Y-11475888D01*
X8393991Y-11475888D02*
X8384467Y-11494936D01*
X8384467Y-11494936D02*
X8374943Y-11504460D01*
X8374943Y-11504460D02*
X8355896Y-11513984D01*
X8355896Y-11513984D02*
X8317801Y-11513984D01*
X8317801Y-11513984D02*
X8298753Y-11504460D01*
X8479705Y-11494936D02*
X8489229Y-11504460D01*
X8489229Y-11504460D02*
X8479705Y-11513984D01*
X8479705Y-11513984D02*
X8470182Y-11504460D01*
X8470182Y-11504460D02*
X8479705Y-11494936D01*
X8479705Y-11494936D02*
X8479705Y-11513984D01*
X8479705Y-11390174D02*
X8489229Y-11399698D01*
X8489229Y-11399698D02*
X8479705Y-11409222D01*
X8479705Y-11409222D02*
X8470182Y-11399698D01*
X8470182Y-11399698D02*
X8479705Y-11390174D01*
X8479705Y-11390174D02*
X8479705Y-11409222D01*
D12*
X6767500Y-11802500D02*
X6847500Y-11882500D01*
X6847500Y-11802500D02*
X6767500Y-11882500D01*
D11*
X7146372Y-11733984D02*
X7165420Y-11733984D01*
X7165420Y-11733984D02*
X7184467Y-11743508D01*
X7184467Y-11743508D02*
X7193991Y-11753031D01*
X7193991Y-11753031D02*
X7203515Y-11772079D01*
X7203515Y-11772079D02*
X7213039Y-11810174D01*
X7213039Y-11810174D02*
X7213039Y-11857793D01*
X7213039Y-11857793D02*
X7203515Y-11895888D01*
X7203515Y-11895888D02*
X7193991Y-11914936D01*
X7193991Y-11914936D02*
X7184467Y-11924460D01*
X7184467Y-11924460D02*
X7165420Y-11933984D01*
X7165420Y-11933984D02*
X7146372Y-11933984D01*
X7146372Y-11933984D02*
X7127324Y-11924460D01*
X7127324Y-11924460D02*
X7117801Y-11914936D01*
X7117801Y-11914936D02*
X7108277Y-11895888D01*
X7108277Y-11895888D02*
X7098753Y-11857793D01*
X7098753Y-11857793D02*
X7098753Y-11810174D01*
X7098753Y-11810174D02*
X7108277Y-11772079D01*
X7108277Y-11772079D02*
X7117801Y-11753031D01*
X7117801Y-11753031D02*
X7127324Y-11743508D01*
X7127324Y-11743508D02*
X7146372Y-11733984D01*
X7298753Y-11914936D02*
X7308277Y-11924460D01*
X7308277Y-11924460D02*
X7298753Y-11933984D01*
X7298753Y-11933984D02*
X7289229Y-11924460D01*
X7289229Y-11924460D02*
X7298753Y-11914936D01*
X7298753Y-11914936D02*
X7298753Y-11933984D01*
X7422562Y-11819698D02*
X7403515Y-11810174D01*
X7403515Y-11810174D02*
X7393991Y-11800650D01*
X7393991Y-11800650D02*
X7384467Y-11781603D01*
X7384467Y-11781603D02*
X7384467Y-11772079D01*
X7384467Y-11772079D02*
X7393991Y-11753031D01*
X7393991Y-11753031D02*
X7403515Y-11743508D01*
X7403515Y-11743508D02*
X7422562Y-11733984D01*
X7422562Y-11733984D02*
X7460658Y-11733984D01*
X7460658Y-11733984D02*
X7479705Y-11743508D01*
X7479705Y-11743508D02*
X7489229Y-11753031D01*
X7489229Y-11753031D02*
X7498753Y-11772079D01*
X7498753Y-11772079D02*
X7498753Y-11781603D01*
X7498753Y-11781603D02*
X7489229Y-11800650D01*
X7489229Y-11800650D02*
X7479705Y-11810174D01*
X7479705Y-11810174D02*
X7460658Y-11819698D01*
X7460658Y-11819698D02*
X7422562Y-11819698D01*
X7422562Y-11819698D02*
X7403515Y-11829222D01*
X7403515Y-11829222D02*
X7393991Y-11838746D01*
X7393991Y-11838746D02*
X7384467Y-11857793D01*
X7384467Y-11857793D02*
X7384467Y-11895888D01*
X7384467Y-11895888D02*
X7393991Y-11914936D01*
X7393991Y-11914936D02*
X7403515Y-11924460D01*
X7403515Y-11924460D02*
X7422562Y-11933984D01*
X7422562Y-11933984D02*
X7460658Y-11933984D01*
X7460658Y-11933984D02*
X7479705Y-11924460D01*
X7479705Y-11924460D02*
X7489229Y-11914936D01*
X7489229Y-11914936D02*
X7498753Y-11895888D01*
X7498753Y-11895888D02*
X7498753Y-11857793D01*
X7498753Y-11857793D02*
X7489229Y-11838746D01*
X7489229Y-11838746D02*
X7479705Y-11829222D01*
X7479705Y-11829222D02*
X7460658Y-11819698D01*
X7622562Y-11733984D02*
X7641610Y-11733984D01*
X7641610Y-11733984D02*
X7660658Y-11743508D01*
X7660658Y-11743508D02*
X7670182Y-11753031D01*
X7670182Y-11753031D02*
X7679705Y-11772079D01*
X7679705Y-11772079D02*
X7689229Y-11810174D01*
X7689229Y-11810174D02*
X7689229Y-11857793D01*
X7689229Y-11857793D02*
X7679705Y-11895888D01*
X7679705Y-11895888D02*
X7670182Y-11914936D01*
X7670182Y-11914936D02*
X7660658Y-11924460D01*
X7660658Y-11924460D02*
X7641610Y-11933984D01*
X7641610Y-11933984D02*
X7622562Y-11933984D01*
X7622562Y-11933984D02*
X7603515Y-11924460D01*
X7603515Y-11924460D02*
X7593991Y-11914936D01*
X7593991Y-11914936D02*
X7584467Y-11895888D01*
X7584467Y-11895888D02*
X7574943Y-11857793D01*
X7574943Y-11857793D02*
X7574943Y-11810174D01*
X7574943Y-11810174D02*
X7584467Y-11772079D01*
X7584467Y-11772079D02*
X7593991Y-11753031D01*
X7593991Y-11753031D02*
X7603515Y-11743508D01*
X7603515Y-11743508D02*
X7622562Y-11733984D01*
X7813039Y-11733984D02*
X7832086Y-11733984D01*
X7832086Y-11733984D02*
X7851134Y-11743508D01*
X7851134Y-11743508D02*
X7860658Y-11753031D01*
X7860658Y-11753031D02*
X7870182Y-11772079D01*
X7870182Y-11772079D02*
X7879705Y-11810174D01*
X7879705Y-11810174D02*
X7879705Y-11857793D01*
X7879705Y-11857793D02*
X7870182Y-11895888D01*
X7870182Y-11895888D02*
X7860658Y-11914936D01*
X7860658Y-11914936D02*
X7851134Y-11924460D01*
X7851134Y-11924460D02*
X7832086Y-11933984D01*
X7832086Y-11933984D02*
X7813039Y-11933984D01*
X7813039Y-11933984D02*
X7793991Y-11924460D01*
X7793991Y-11924460D02*
X7784467Y-11914936D01*
X7784467Y-11914936D02*
X7774943Y-11895888D01*
X7774943Y-11895888D02*
X7765420Y-11857793D01*
X7765420Y-11857793D02*
X7765420Y-11810174D01*
X7765420Y-11810174D02*
X7774943Y-11772079D01*
X7774943Y-11772079D02*
X7784467Y-11753031D01*
X7784467Y-11753031D02*
X7793991Y-11743508D01*
X7793991Y-11743508D02*
X7813039Y-11733984D01*
X7965420Y-11933984D02*
X7965420Y-11800650D01*
X7965420Y-11819698D02*
X7974943Y-11810174D01*
X7974943Y-11810174D02*
X7993991Y-11800650D01*
X7993991Y-11800650D02*
X8022563Y-11800650D01*
X8022563Y-11800650D02*
X8041610Y-11810174D01*
X8041610Y-11810174D02*
X8051134Y-11829222D01*
X8051134Y-11829222D02*
X8051134Y-11933984D01*
X8051134Y-11829222D02*
X8060658Y-11810174D01*
X8060658Y-11810174D02*
X8079705Y-11800650D01*
X8079705Y-11800650D02*
X8108277Y-11800650D01*
X8108277Y-11800650D02*
X8127324Y-11810174D01*
X8127324Y-11810174D02*
X8136848Y-11829222D01*
X8136848Y-11829222D02*
X8136848Y-11933984D01*
X8232086Y-11933984D02*
X8232086Y-11800650D01*
X8232086Y-11819698D02*
X8241610Y-11810174D01*
X8241610Y-11810174D02*
X8260658Y-11800650D01*
X8260658Y-11800650D02*
X8289229Y-11800650D01*
X8289229Y-11800650D02*
X8308277Y-11810174D01*
X8308277Y-11810174D02*
X8317801Y-11829222D01*
X8317801Y-11829222D02*
X8317801Y-11933984D01*
X8317801Y-11829222D02*
X8327324Y-11810174D01*
X8327324Y-11810174D02*
X8346372Y-11800650D01*
X8346372Y-11800650D02*
X8374943Y-11800650D01*
X8374943Y-11800650D02*
X8393991Y-11810174D01*
X8393991Y-11810174D02*
X8403515Y-11829222D01*
X8403515Y-11829222D02*
X8403515Y-11933984D01*
X8793991Y-11724460D02*
X8622563Y-11981603D01*
X9051134Y-11733984D02*
X9070182Y-11733984D01*
X9070182Y-11733984D02*
X9089229Y-11743508D01*
X9089229Y-11743508D02*
X9098753Y-11753031D01*
X9098753Y-11753031D02*
X9108277Y-11772079D01*
X9108277Y-11772079D02*
X9117801Y-11810174D01*
X9117801Y-11810174D02*
X9117801Y-11857793D01*
X9117801Y-11857793D02*
X9108277Y-11895888D01*
X9108277Y-11895888D02*
X9098753Y-11914936D01*
X9098753Y-11914936D02*
X9089229Y-11924460D01*
X9089229Y-11924460D02*
X9070182Y-11933984D01*
X9070182Y-11933984D02*
X9051134Y-11933984D01*
X9051134Y-11933984D02*
X9032087Y-11924460D01*
X9032087Y-11924460D02*
X9022563Y-11914936D01*
X9022563Y-11914936D02*
X9013039Y-11895888D01*
X9013039Y-11895888D02*
X9003515Y-11857793D01*
X9003515Y-11857793D02*
X9003515Y-11810174D01*
X9003515Y-11810174D02*
X9013039Y-11772079D01*
X9013039Y-11772079D02*
X9022563Y-11753031D01*
X9022563Y-11753031D02*
X9032087Y-11743508D01*
X9032087Y-11743508D02*
X9051134Y-11733984D01*
X9203515Y-11914936D02*
X9213039Y-11924460D01*
X9213039Y-11924460D02*
X9203515Y-11933984D01*
X9203515Y-11933984D02*
X9193991Y-11924460D01*
X9193991Y-11924460D02*
X9203515Y-11914936D01*
X9203515Y-11914936D02*
X9203515Y-11933984D01*
X9336848Y-11733984D02*
X9355896Y-11733984D01*
X9355896Y-11733984D02*
X9374944Y-11743508D01*
X9374944Y-11743508D02*
X9384468Y-11753031D01*
X9384468Y-11753031D02*
X9393991Y-11772079D01*
X9393991Y-11772079D02*
X9403515Y-11810174D01*
X9403515Y-11810174D02*
X9403515Y-11857793D01*
X9403515Y-11857793D02*
X9393991Y-11895888D01*
X9393991Y-11895888D02*
X9384468Y-11914936D01*
X9384468Y-11914936D02*
X9374944Y-11924460D01*
X9374944Y-11924460D02*
X9355896Y-11933984D01*
X9355896Y-11933984D02*
X9336848Y-11933984D01*
X9336848Y-11933984D02*
X9317801Y-11924460D01*
X9317801Y-11924460D02*
X9308277Y-11914936D01*
X9308277Y-11914936D02*
X9298753Y-11895888D01*
X9298753Y-11895888D02*
X9289229Y-11857793D01*
X9289229Y-11857793D02*
X9289229Y-11810174D01*
X9289229Y-11810174D02*
X9298753Y-11772079D01*
X9298753Y-11772079D02*
X9308277Y-11753031D01*
X9308277Y-11753031D02*
X9317801Y-11743508D01*
X9317801Y-11743508D02*
X9336848Y-11733984D01*
X9470182Y-11733984D02*
X9593991Y-11733984D01*
X9593991Y-11733984D02*
X9527325Y-11810174D01*
X9527325Y-11810174D02*
X9555896Y-11810174D01*
X9555896Y-11810174D02*
X9574944Y-11819698D01*
X9574944Y-11819698D02*
X9584468Y-11829222D01*
X9584468Y-11829222D02*
X9593991Y-11848269D01*
X9593991Y-11848269D02*
X9593991Y-11895888D01*
X9593991Y-11895888D02*
X9584468Y-11914936D01*
X9584468Y-11914936D02*
X9574944Y-11924460D01*
X9574944Y-11924460D02*
X9555896Y-11933984D01*
X9555896Y-11933984D02*
X9498753Y-11933984D01*
X9498753Y-11933984D02*
X9479706Y-11924460D01*
X9479706Y-11924460D02*
X9470182Y-11914936D01*
X9784468Y-11933984D02*
X9670182Y-11933984D01*
X9727325Y-11933984D02*
X9727325Y-11733984D01*
X9727325Y-11733984D02*
X9708277Y-11762555D01*
X9708277Y-11762555D02*
X9689229Y-11781603D01*
X9689229Y-11781603D02*
X9670182Y-11791127D01*
X9965420Y-11733984D02*
X9870182Y-11733984D01*
X9870182Y-11733984D02*
X9860658Y-11829222D01*
X9860658Y-11829222D02*
X9870182Y-11819698D01*
X9870182Y-11819698D02*
X9889229Y-11810174D01*
X9889229Y-11810174D02*
X9936849Y-11810174D01*
X9936849Y-11810174D02*
X9955896Y-11819698D01*
X9955896Y-11819698D02*
X9965420Y-11829222D01*
X9965420Y-11829222D02*
X9974944Y-11848269D01*
X9974944Y-11848269D02*
X9974944Y-11895888D01*
X9974944Y-11895888D02*
X9965420Y-11914936D01*
X9965420Y-11914936D02*
X9955896Y-11924460D01*
X9955896Y-11924460D02*
X9936849Y-11933984D01*
X9936849Y-11933984D02*
X9889229Y-11933984D01*
X9889229Y-11933984D02*
X9870182Y-11924460D01*
X9870182Y-11924460D02*
X9860658Y-11914936D01*
X10051134Y-11733984D02*
X10051134Y-11772079D01*
X10127325Y-11733984D02*
X10127325Y-11772079D01*
X10422563Y-12010174D02*
X10413039Y-12000650D01*
X10413039Y-12000650D02*
X10393991Y-11972079D01*
X10393991Y-11972079D02*
X10384468Y-11953031D01*
X10384468Y-11953031D02*
X10374944Y-11924460D01*
X10374944Y-11924460D02*
X10365420Y-11876841D01*
X10365420Y-11876841D02*
X10365420Y-11838746D01*
X10365420Y-11838746D02*
X10374944Y-11791127D01*
X10374944Y-11791127D02*
X10384468Y-11762555D01*
X10384468Y-11762555D02*
X10393991Y-11743508D01*
X10393991Y-11743508D02*
X10413039Y-11714936D01*
X10413039Y-11714936D02*
X10422563Y-11705412D01*
X10489230Y-11753031D02*
X10498753Y-11743508D01*
X10498753Y-11743508D02*
X10517801Y-11733984D01*
X10517801Y-11733984D02*
X10565420Y-11733984D01*
X10565420Y-11733984D02*
X10584468Y-11743508D01*
X10584468Y-11743508D02*
X10593991Y-11753031D01*
X10593991Y-11753031D02*
X10603515Y-11772079D01*
X10603515Y-11772079D02*
X10603515Y-11791127D01*
X10603515Y-11791127D02*
X10593991Y-11819698D01*
X10593991Y-11819698D02*
X10479706Y-11933984D01*
X10479706Y-11933984D02*
X10603515Y-11933984D01*
X10841611Y-11933984D02*
X10841611Y-11733984D01*
X10927325Y-11933984D02*
X10927325Y-11829222D01*
X10927325Y-11829222D02*
X10917801Y-11810174D01*
X10917801Y-11810174D02*
X10898753Y-11800650D01*
X10898753Y-11800650D02*
X10870182Y-11800650D01*
X10870182Y-11800650D02*
X10851134Y-11810174D01*
X10851134Y-11810174D02*
X10841611Y-11819698D01*
X11051134Y-11933984D02*
X11032087Y-11924460D01*
X11032087Y-11924460D02*
X11022563Y-11914936D01*
X11022563Y-11914936D02*
X11013039Y-11895888D01*
X11013039Y-11895888D02*
X11013039Y-11838746D01*
X11013039Y-11838746D02*
X11022563Y-11819698D01*
X11022563Y-11819698D02*
X11032087Y-11810174D01*
X11032087Y-11810174D02*
X11051134Y-11800650D01*
X11051134Y-11800650D02*
X11079706Y-11800650D01*
X11079706Y-11800650D02*
X11098753Y-11810174D01*
X11098753Y-11810174D02*
X11108277Y-11819698D01*
X11108277Y-11819698D02*
X11117801Y-11838746D01*
X11117801Y-11838746D02*
X11117801Y-11895888D01*
X11117801Y-11895888D02*
X11108277Y-11914936D01*
X11108277Y-11914936D02*
X11098753Y-11924460D01*
X11098753Y-11924460D02*
X11079706Y-11933984D01*
X11079706Y-11933984D02*
X11051134Y-11933984D01*
X11232087Y-11933984D02*
X11213039Y-11924460D01*
X11213039Y-11924460D02*
X11203515Y-11905412D01*
X11203515Y-11905412D02*
X11203515Y-11733984D01*
X11384468Y-11924460D02*
X11365420Y-11933984D01*
X11365420Y-11933984D02*
X11327325Y-11933984D01*
X11327325Y-11933984D02*
X11308277Y-11924460D01*
X11308277Y-11924460D02*
X11298753Y-11905412D01*
X11298753Y-11905412D02*
X11298753Y-11829222D01*
X11298753Y-11829222D02*
X11308277Y-11810174D01*
X11308277Y-11810174D02*
X11327325Y-11800650D01*
X11327325Y-11800650D02*
X11365420Y-11800650D01*
X11365420Y-11800650D02*
X11384468Y-11810174D01*
X11384468Y-11810174D02*
X11393991Y-11829222D01*
X11393991Y-11829222D02*
X11393991Y-11848269D01*
X11393991Y-11848269D02*
X11298753Y-11867317D01*
X11470182Y-11924460D02*
X11489230Y-11933984D01*
X11489230Y-11933984D02*
X11527325Y-11933984D01*
X11527325Y-11933984D02*
X11546372Y-11924460D01*
X11546372Y-11924460D02*
X11555896Y-11905412D01*
X11555896Y-11905412D02*
X11555896Y-11895888D01*
X11555896Y-11895888D02*
X11546372Y-11876841D01*
X11546372Y-11876841D02*
X11527325Y-11867317D01*
X11527325Y-11867317D02*
X11498753Y-11867317D01*
X11498753Y-11867317D02*
X11479706Y-11857793D01*
X11479706Y-11857793D02*
X11470182Y-11838746D01*
X11470182Y-11838746D02*
X11470182Y-11829222D01*
X11470182Y-11829222D02*
X11479706Y-11810174D01*
X11479706Y-11810174D02*
X11498753Y-11800650D01*
X11498753Y-11800650D02*
X11527325Y-11800650D01*
X11527325Y-11800650D02*
X11546372Y-11810174D01*
X11622563Y-12010174D02*
X11632087Y-12000650D01*
X11632087Y-12000650D02*
X11651134Y-11972079D01*
X11651134Y-11972079D02*
X11660658Y-11953031D01*
X11660658Y-11953031D02*
X11670182Y-11924460D01*
X11670182Y-11924460D02*
X11679706Y-11876841D01*
X11679706Y-11876841D02*
X11679706Y-11838746D01*
X11679706Y-11838746D02*
X11670182Y-11791127D01*
X11670182Y-11791127D02*
X11660658Y-11762555D01*
X11660658Y-11762555D02*
X11651134Y-11743508D01*
X11651134Y-11743508D02*
X11632087Y-11714936D01*
X11632087Y-11714936D02*
X11622563Y-11705412D01*
D12*
X6847500Y-12106500D02*
G75*
G02*
X6757500Y-12106500I-45000J0D01*
G01*
X6757500Y-12106500D02*
G75*
G02*
X6847500Y-12106500I45000J0D01*
G01*
D11*
X7146372Y-11997984D02*
X7165420Y-11997984D01*
X7165420Y-11997984D02*
X7184467Y-12007508D01*
X7184467Y-12007508D02*
X7193991Y-12017031D01*
X7193991Y-12017031D02*
X7203515Y-12036079D01*
X7203515Y-12036079D02*
X7213039Y-12074174D01*
X7213039Y-12074174D02*
X7213039Y-12121793D01*
X7213039Y-12121793D02*
X7203515Y-12159888D01*
X7203515Y-12159888D02*
X7193991Y-12178936D01*
X7193991Y-12178936D02*
X7184467Y-12188460D01*
X7184467Y-12188460D02*
X7165420Y-12197984D01*
X7165420Y-12197984D02*
X7146372Y-12197984D01*
X7146372Y-12197984D02*
X7127324Y-12188460D01*
X7127324Y-12188460D02*
X7117801Y-12178936D01*
X7117801Y-12178936D02*
X7108277Y-12159888D01*
X7108277Y-12159888D02*
X7098753Y-12121793D01*
X7098753Y-12121793D02*
X7098753Y-12074174D01*
X7098753Y-12074174D02*
X7108277Y-12036079D01*
X7108277Y-12036079D02*
X7117801Y-12017031D01*
X7117801Y-12017031D02*
X7127324Y-12007508D01*
X7127324Y-12007508D02*
X7146372Y-11997984D01*
X7298753Y-12178936D02*
X7308277Y-12188460D01*
X7308277Y-12188460D02*
X7298753Y-12197984D01*
X7298753Y-12197984D02*
X7289229Y-12188460D01*
X7289229Y-12188460D02*
X7298753Y-12178936D01*
X7298753Y-12178936D02*
X7298753Y-12197984D01*
X7403515Y-12197984D02*
X7441610Y-12197984D01*
X7441610Y-12197984D02*
X7460658Y-12188460D01*
X7460658Y-12188460D02*
X7470182Y-12178936D01*
X7470182Y-12178936D02*
X7489229Y-12150365D01*
X7489229Y-12150365D02*
X7498753Y-12112269D01*
X7498753Y-12112269D02*
X7498753Y-12036079D01*
X7498753Y-12036079D02*
X7489229Y-12017031D01*
X7489229Y-12017031D02*
X7479705Y-12007508D01*
X7479705Y-12007508D02*
X7460658Y-11997984D01*
X7460658Y-11997984D02*
X7422562Y-11997984D01*
X7422562Y-11997984D02*
X7403515Y-12007508D01*
X7403515Y-12007508D02*
X7393991Y-12017031D01*
X7393991Y-12017031D02*
X7384467Y-12036079D01*
X7384467Y-12036079D02*
X7384467Y-12083698D01*
X7384467Y-12083698D02*
X7393991Y-12102746D01*
X7393991Y-12102746D02*
X7403515Y-12112269D01*
X7403515Y-12112269D02*
X7422562Y-12121793D01*
X7422562Y-12121793D02*
X7460658Y-12121793D01*
X7460658Y-12121793D02*
X7479705Y-12112269D01*
X7479705Y-12112269D02*
X7489229Y-12102746D01*
X7489229Y-12102746D02*
X7498753Y-12083698D01*
X7622562Y-11997984D02*
X7641610Y-11997984D01*
X7641610Y-11997984D02*
X7660658Y-12007508D01*
X7660658Y-12007508D02*
X7670182Y-12017031D01*
X7670182Y-12017031D02*
X7679705Y-12036079D01*
X7679705Y-12036079D02*
X7689229Y-12074174D01*
X7689229Y-12074174D02*
X7689229Y-12121793D01*
X7689229Y-12121793D02*
X7679705Y-12159888D01*
X7679705Y-12159888D02*
X7670182Y-12178936D01*
X7670182Y-12178936D02*
X7660658Y-12188460D01*
X7660658Y-12188460D02*
X7641610Y-12197984D01*
X7641610Y-12197984D02*
X7622562Y-12197984D01*
X7622562Y-12197984D02*
X7603515Y-12188460D01*
X7603515Y-12188460D02*
X7593991Y-12178936D01*
X7593991Y-12178936D02*
X7584467Y-12159888D01*
X7584467Y-12159888D02*
X7574943Y-12121793D01*
X7574943Y-12121793D02*
X7574943Y-12074174D01*
X7574943Y-12074174D02*
X7584467Y-12036079D01*
X7584467Y-12036079D02*
X7593991Y-12017031D01*
X7593991Y-12017031D02*
X7603515Y-12007508D01*
X7603515Y-12007508D02*
X7622562Y-11997984D01*
X7813039Y-11997984D02*
X7832086Y-11997984D01*
X7832086Y-11997984D02*
X7851134Y-12007508D01*
X7851134Y-12007508D02*
X7860658Y-12017031D01*
X7860658Y-12017031D02*
X7870182Y-12036079D01*
X7870182Y-12036079D02*
X7879705Y-12074174D01*
X7879705Y-12074174D02*
X7879705Y-12121793D01*
X7879705Y-12121793D02*
X7870182Y-12159888D01*
X7870182Y-12159888D02*
X7860658Y-12178936D01*
X7860658Y-12178936D02*
X7851134Y-12188460D01*
X7851134Y-12188460D02*
X7832086Y-12197984D01*
X7832086Y-12197984D02*
X7813039Y-12197984D01*
X7813039Y-12197984D02*
X7793991Y-12188460D01*
X7793991Y-12188460D02*
X7784467Y-12178936D01*
X7784467Y-12178936D02*
X7774943Y-12159888D01*
X7774943Y-12159888D02*
X7765420Y-12121793D01*
X7765420Y-12121793D02*
X7765420Y-12074174D01*
X7765420Y-12074174D02*
X7774943Y-12036079D01*
X7774943Y-12036079D02*
X7784467Y-12017031D01*
X7784467Y-12017031D02*
X7793991Y-12007508D01*
X7793991Y-12007508D02*
X7813039Y-11997984D01*
X7965420Y-12197984D02*
X7965420Y-12064650D01*
X7965420Y-12083698D02*
X7974943Y-12074174D01*
X7974943Y-12074174D02*
X7993991Y-12064650D01*
X7993991Y-12064650D02*
X8022563Y-12064650D01*
X8022563Y-12064650D02*
X8041610Y-12074174D01*
X8041610Y-12074174D02*
X8051134Y-12093222D01*
X8051134Y-12093222D02*
X8051134Y-12197984D01*
X8051134Y-12093222D02*
X8060658Y-12074174D01*
X8060658Y-12074174D02*
X8079705Y-12064650D01*
X8079705Y-12064650D02*
X8108277Y-12064650D01*
X8108277Y-12064650D02*
X8127324Y-12074174D01*
X8127324Y-12074174D02*
X8136848Y-12093222D01*
X8136848Y-12093222D02*
X8136848Y-12197984D01*
X8232086Y-12197984D02*
X8232086Y-12064650D01*
X8232086Y-12083698D02*
X8241610Y-12074174D01*
X8241610Y-12074174D02*
X8260658Y-12064650D01*
X8260658Y-12064650D02*
X8289229Y-12064650D01*
X8289229Y-12064650D02*
X8308277Y-12074174D01*
X8308277Y-12074174D02*
X8317801Y-12093222D01*
X8317801Y-12093222D02*
X8317801Y-12197984D01*
X8317801Y-12093222D02*
X8327324Y-12074174D01*
X8327324Y-12074174D02*
X8346372Y-12064650D01*
X8346372Y-12064650D02*
X8374943Y-12064650D01*
X8374943Y-12064650D02*
X8393991Y-12074174D01*
X8393991Y-12074174D02*
X8403515Y-12093222D01*
X8403515Y-12093222D02*
X8403515Y-12197984D01*
X8793991Y-11988460D02*
X8622563Y-12245603D01*
X9051134Y-11997984D02*
X9070182Y-11997984D01*
X9070182Y-11997984D02*
X9089229Y-12007508D01*
X9089229Y-12007508D02*
X9098753Y-12017031D01*
X9098753Y-12017031D02*
X9108277Y-12036079D01*
X9108277Y-12036079D02*
X9117801Y-12074174D01*
X9117801Y-12074174D02*
X9117801Y-12121793D01*
X9117801Y-12121793D02*
X9108277Y-12159888D01*
X9108277Y-12159888D02*
X9098753Y-12178936D01*
X9098753Y-12178936D02*
X9089229Y-12188460D01*
X9089229Y-12188460D02*
X9070182Y-12197984D01*
X9070182Y-12197984D02*
X9051134Y-12197984D01*
X9051134Y-12197984D02*
X9032087Y-12188460D01*
X9032087Y-12188460D02*
X9022563Y-12178936D01*
X9022563Y-12178936D02*
X9013039Y-12159888D01*
X9013039Y-12159888D02*
X9003515Y-12121793D01*
X9003515Y-12121793D02*
X9003515Y-12074174D01*
X9003515Y-12074174D02*
X9013039Y-12036079D01*
X9013039Y-12036079D02*
X9022563Y-12017031D01*
X9022563Y-12017031D02*
X9032087Y-12007508D01*
X9032087Y-12007508D02*
X9051134Y-11997984D01*
X9203515Y-12178936D02*
X9213039Y-12188460D01*
X9213039Y-12188460D02*
X9203515Y-12197984D01*
X9203515Y-12197984D02*
X9193991Y-12188460D01*
X9193991Y-12188460D02*
X9203515Y-12178936D01*
X9203515Y-12178936D02*
X9203515Y-12197984D01*
X9336848Y-11997984D02*
X9355896Y-11997984D01*
X9355896Y-11997984D02*
X9374944Y-12007508D01*
X9374944Y-12007508D02*
X9384468Y-12017031D01*
X9384468Y-12017031D02*
X9393991Y-12036079D01*
X9393991Y-12036079D02*
X9403515Y-12074174D01*
X9403515Y-12074174D02*
X9403515Y-12121793D01*
X9403515Y-12121793D02*
X9393991Y-12159888D01*
X9393991Y-12159888D02*
X9384468Y-12178936D01*
X9384468Y-12178936D02*
X9374944Y-12188460D01*
X9374944Y-12188460D02*
X9355896Y-12197984D01*
X9355896Y-12197984D02*
X9336848Y-12197984D01*
X9336848Y-12197984D02*
X9317801Y-12188460D01*
X9317801Y-12188460D02*
X9308277Y-12178936D01*
X9308277Y-12178936D02*
X9298753Y-12159888D01*
X9298753Y-12159888D02*
X9289229Y-12121793D01*
X9289229Y-12121793D02*
X9289229Y-12074174D01*
X9289229Y-12074174D02*
X9298753Y-12036079D01*
X9298753Y-12036079D02*
X9308277Y-12017031D01*
X9308277Y-12017031D02*
X9317801Y-12007508D01*
X9317801Y-12007508D02*
X9336848Y-11997984D01*
X9470182Y-11997984D02*
X9593991Y-11997984D01*
X9593991Y-11997984D02*
X9527325Y-12074174D01*
X9527325Y-12074174D02*
X9555896Y-12074174D01*
X9555896Y-12074174D02*
X9574944Y-12083698D01*
X9574944Y-12083698D02*
X9584468Y-12093222D01*
X9584468Y-12093222D02*
X9593991Y-12112269D01*
X9593991Y-12112269D02*
X9593991Y-12159888D01*
X9593991Y-12159888D02*
X9584468Y-12178936D01*
X9584468Y-12178936D02*
X9574944Y-12188460D01*
X9574944Y-12188460D02*
X9555896Y-12197984D01*
X9555896Y-12197984D02*
X9498753Y-12197984D01*
X9498753Y-12197984D02*
X9479706Y-12188460D01*
X9479706Y-12188460D02*
X9470182Y-12178936D01*
X9774944Y-11997984D02*
X9679706Y-11997984D01*
X9679706Y-11997984D02*
X9670182Y-12093222D01*
X9670182Y-12093222D02*
X9679706Y-12083698D01*
X9679706Y-12083698D02*
X9698753Y-12074174D01*
X9698753Y-12074174D02*
X9746372Y-12074174D01*
X9746372Y-12074174D02*
X9765420Y-12083698D01*
X9765420Y-12083698D02*
X9774944Y-12093222D01*
X9774944Y-12093222D02*
X9784468Y-12112269D01*
X9784468Y-12112269D02*
X9784468Y-12159888D01*
X9784468Y-12159888D02*
X9774944Y-12178936D01*
X9774944Y-12178936D02*
X9765420Y-12188460D01*
X9765420Y-12188460D02*
X9746372Y-12197984D01*
X9746372Y-12197984D02*
X9698753Y-12197984D01*
X9698753Y-12197984D02*
X9679706Y-12188460D01*
X9679706Y-12188460D02*
X9670182Y-12178936D01*
X9955896Y-12064650D02*
X9955896Y-12197984D01*
X9908277Y-11988460D02*
X9860658Y-12131317D01*
X9860658Y-12131317D02*
X9984468Y-12131317D01*
X10051134Y-11997984D02*
X10051134Y-12036079D01*
X10127325Y-11997984D02*
X10127325Y-12036079D01*
X10422563Y-12274174D02*
X10413039Y-12264650D01*
X10413039Y-12264650D02*
X10393991Y-12236079D01*
X10393991Y-12236079D02*
X10384468Y-12217031D01*
X10384468Y-12217031D02*
X10374944Y-12188460D01*
X10374944Y-12188460D02*
X10365420Y-12140841D01*
X10365420Y-12140841D02*
X10365420Y-12102746D01*
X10365420Y-12102746D02*
X10374944Y-12055127D01*
X10374944Y-12055127D02*
X10384468Y-12026555D01*
X10384468Y-12026555D02*
X10393991Y-12007508D01*
X10393991Y-12007508D02*
X10413039Y-11978936D01*
X10413039Y-11978936D02*
X10422563Y-11969412D01*
X10489230Y-12017031D02*
X10498753Y-12007508D01*
X10498753Y-12007508D02*
X10517801Y-11997984D01*
X10517801Y-11997984D02*
X10565420Y-11997984D01*
X10565420Y-11997984D02*
X10584468Y-12007508D01*
X10584468Y-12007508D02*
X10593991Y-12017031D01*
X10593991Y-12017031D02*
X10603515Y-12036079D01*
X10603515Y-12036079D02*
X10603515Y-12055127D01*
X10603515Y-12055127D02*
X10593991Y-12083698D01*
X10593991Y-12083698D02*
X10479706Y-12197984D01*
X10479706Y-12197984D02*
X10603515Y-12197984D01*
X10841611Y-12197984D02*
X10841611Y-11997984D01*
X10927325Y-12197984D02*
X10927325Y-12093222D01*
X10927325Y-12093222D02*
X10917801Y-12074174D01*
X10917801Y-12074174D02*
X10898753Y-12064650D01*
X10898753Y-12064650D02*
X10870182Y-12064650D01*
X10870182Y-12064650D02*
X10851134Y-12074174D01*
X10851134Y-12074174D02*
X10841611Y-12083698D01*
X11051134Y-12197984D02*
X11032087Y-12188460D01*
X11032087Y-12188460D02*
X11022563Y-12178936D01*
X11022563Y-12178936D02*
X11013039Y-12159888D01*
X11013039Y-12159888D02*
X11013039Y-12102746D01*
X11013039Y-12102746D02*
X11022563Y-12083698D01*
X11022563Y-12083698D02*
X11032087Y-12074174D01*
X11032087Y-12074174D02*
X11051134Y-12064650D01*
X11051134Y-12064650D02*
X11079706Y-12064650D01*
X11079706Y-12064650D02*
X11098753Y-12074174D01*
X11098753Y-12074174D02*
X11108277Y-12083698D01*
X11108277Y-12083698D02*
X11117801Y-12102746D01*
X11117801Y-12102746D02*
X11117801Y-12159888D01*
X11117801Y-12159888D02*
X11108277Y-12178936D01*
X11108277Y-12178936D02*
X11098753Y-12188460D01*
X11098753Y-12188460D02*
X11079706Y-12197984D01*
X11079706Y-12197984D02*
X11051134Y-12197984D01*
X11232087Y-12197984D02*
X11213039Y-12188460D01*
X11213039Y-12188460D02*
X11203515Y-12169412D01*
X11203515Y-12169412D02*
X11203515Y-11997984D01*
X11384468Y-12188460D02*
X11365420Y-12197984D01*
X11365420Y-12197984D02*
X11327325Y-12197984D01*
X11327325Y-12197984D02*
X11308277Y-12188460D01*
X11308277Y-12188460D02*
X11298753Y-12169412D01*
X11298753Y-12169412D02*
X11298753Y-12093222D01*
X11298753Y-12093222D02*
X11308277Y-12074174D01*
X11308277Y-12074174D02*
X11327325Y-12064650D01*
X11327325Y-12064650D02*
X11365420Y-12064650D01*
X11365420Y-12064650D02*
X11384468Y-12074174D01*
X11384468Y-12074174D02*
X11393991Y-12093222D01*
X11393991Y-12093222D02*
X11393991Y-12112269D01*
X11393991Y-12112269D02*
X11298753Y-12131317D01*
X11470182Y-12188460D02*
X11489230Y-12197984D01*
X11489230Y-12197984D02*
X11527325Y-12197984D01*
X11527325Y-12197984D02*
X11546372Y-12188460D01*
X11546372Y-12188460D02*
X11555896Y-12169412D01*
X11555896Y-12169412D02*
X11555896Y-12159888D01*
X11555896Y-12159888D02*
X11546372Y-12140841D01*
X11546372Y-12140841D02*
X11527325Y-12131317D01*
X11527325Y-12131317D02*
X11498753Y-12131317D01*
X11498753Y-12131317D02*
X11479706Y-12121793D01*
X11479706Y-12121793D02*
X11470182Y-12102746D01*
X11470182Y-12102746D02*
X11470182Y-12093222D01*
X11470182Y-12093222D02*
X11479706Y-12074174D01*
X11479706Y-12074174D02*
X11498753Y-12064650D01*
X11498753Y-12064650D02*
X11527325Y-12064650D01*
X11527325Y-12064650D02*
X11546372Y-12074174D01*
X11622563Y-12274174D02*
X11632087Y-12264650D01*
X11632087Y-12264650D02*
X11651134Y-12236079D01*
X11651134Y-12236079D02*
X11660658Y-12217031D01*
X11660658Y-12217031D02*
X11670182Y-12188460D01*
X11670182Y-12188460D02*
X11679706Y-12140841D01*
X11679706Y-12140841D02*
X11679706Y-12102746D01*
X11679706Y-12102746D02*
X11670182Y-12055127D01*
X11670182Y-12055127D02*
X11660658Y-12026555D01*
X11660658Y-12026555D02*
X11651134Y-12007508D01*
X11651134Y-12007508D02*
X11632087Y-11978936D01*
X11632087Y-11978936D02*
X11622563Y-11969412D01*
D12*
X6797500Y-12320500D02*
X6797500Y-12420500D01*
X6747500Y-12370500D02*
X6847500Y-12370500D01*
D11*
X7213039Y-12461984D02*
X7098753Y-12461984D01*
X7155896Y-12461984D02*
X7155896Y-12261984D01*
X7155896Y-12261984D02*
X7136848Y-12290555D01*
X7136848Y-12290555D02*
X7117801Y-12309603D01*
X7117801Y-12309603D02*
X7098753Y-12319127D01*
X7298753Y-12442936D02*
X7308277Y-12452460D01*
X7308277Y-12452460D02*
X7298753Y-12461984D01*
X7298753Y-12461984D02*
X7289229Y-12452460D01*
X7289229Y-12452460D02*
X7298753Y-12442936D01*
X7298753Y-12442936D02*
X7298753Y-12461984D01*
X7432086Y-12261984D02*
X7451134Y-12261984D01*
X7451134Y-12261984D02*
X7470182Y-12271508D01*
X7470182Y-12271508D02*
X7479705Y-12281031D01*
X7479705Y-12281031D02*
X7489229Y-12300079D01*
X7489229Y-12300079D02*
X7498753Y-12338174D01*
X7498753Y-12338174D02*
X7498753Y-12385793D01*
X7498753Y-12385793D02*
X7489229Y-12423888D01*
X7489229Y-12423888D02*
X7479705Y-12442936D01*
X7479705Y-12442936D02*
X7470182Y-12452460D01*
X7470182Y-12452460D02*
X7451134Y-12461984D01*
X7451134Y-12461984D02*
X7432086Y-12461984D01*
X7432086Y-12461984D02*
X7413039Y-12452460D01*
X7413039Y-12452460D02*
X7403515Y-12442936D01*
X7403515Y-12442936D02*
X7393991Y-12423888D01*
X7393991Y-12423888D02*
X7384467Y-12385793D01*
X7384467Y-12385793D02*
X7384467Y-12338174D01*
X7384467Y-12338174D02*
X7393991Y-12300079D01*
X7393991Y-12300079D02*
X7403515Y-12281031D01*
X7403515Y-12281031D02*
X7413039Y-12271508D01*
X7413039Y-12271508D02*
X7432086Y-12261984D01*
X7622562Y-12261984D02*
X7641610Y-12261984D01*
X7641610Y-12261984D02*
X7660658Y-12271508D01*
X7660658Y-12271508D02*
X7670182Y-12281031D01*
X7670182Y-12281031D02*
X7679705Y-12300079D01*
X7679705Y-12300079D02*
X7689229Y-12338174D01*
X7689229Y-12338174D02*
X7689229Y-12385793D01*
X7689229Y-12385793D02*
X7679705Y-12423888D01*
X7679705Y-12423888D02*
X7670182Y-12442936D01*
X7670182Y-12442936D02*
X7660658Y-12452460D01*
X7660658Y-12452460D02*
X7641610Y-12461984D01*
X7641610Y-12461984D02*
X7622562Y-12461984D01*
X7622562Y-12461984D02*
X7603515Y-12452460D01*
X7603515Y-12452460D02*
X7593991Y-12442936D01*
X7593991Y-12442936D02*
X7584467Y-12423888D01*
X7584467Y-12423888D02*
X7574943Y-12385793D01*
X7574943Y-12385793D02*
X7574943Y-12338174D01*
X7574943Y-12338174D02*
X7584467Y-12300079D01*
X7584467Y-12300079D02*
X7593991Y-12281031D01*
X7593991Y-12281031D02*
X7603515Y-12271508D01*
X7603515Y-12271508D02*
X7622562Y-12261984D01*
X7813039Y-12261984D02*
X7832086Y-12261984D01*
X7832086Y-12261984D02*
X7851134Y-12271508D01*
X7851134Y-12271508D02*
X7860658Y-12281031D01*
X7860658Y-12281031D02*
X7870182Y-12300079D01*
X7870182Y-12300079D02*
X7879705Y-12338174D01*
X7879705Y-12338174D02*
X7879705Y-12385793D01*
X7879705Y-12385793D02*
X7870182Y-12423888D01*
X7870182Y-12423888D02*
X7860658Y-12442936D01*
X7860658Y-12442936D02*
X7851134Y-12452460D01*
X7851134Y-12452460D02*
X7832086Y-12461984D01*
X7832086Y-12461984D02*
X7813039Y-12461984D01*
X7813039Y-12461984D02*
X7793991Y-12452460D01*
X7793991Y-12452460D02*
X7784467Y-12442936D01*
X7784467Y-12442936D02*
X7774943Y-12423888D01*
X7774943Y-12423888D02*
X7765420Y-12385793D01*
X7765420Y-12385793D02*
X7765420Y-12338174D01*
X7765420Y-12338174D02*
X7774943Y-12300079D01*
X7774943Y-12300079D02*
X7784467Y-12281031D01*
X7784467Y-12281031D02*
X7793991Y-12271508D01*
X7793991Y-12271508D02*
X7813039Y-12261984D01*
X7965420Y-12461984D02*
X7965420Y-12328650D01*
X7965420Y-12347698D02*
X7974943Y-12338174D01*
X7974943Y-12338174D02*
X7993991Y-12328650D01*
X7993991Y-12328650D02*
X8022563Y-12328650D01*
X8022563Y-12328650D02*
X8041610Y-12338174D01*
X8041610Y-12338174D02*
X8051134Y-12357222D01*
X8051134Y-12357222D02*
X8051134Y-12461984D01*
X8051134Y-12357222D02*
X8060658Y-12338174D01*
X8060658Y-12338174D02*
X8079705Y-12328650D01*
X8079705Y-12328650D02*
X8108277Y-12328650D01*
X8108277Y-12328650D02*
X8127324Y-12338174D01*
X8127324Y-12338174D02*
X8136848Y-12357222D01*
X8136848Y-12357222D02*
X8136848Y-12461984D01*
X8232086Y-12461984D02*
X8232086Y-12328650D01*
X8232086Y-12347698D02*
X8241610Y-12338174D01*
X8241610Y-12338174D02*
X8260658Y-12328650D01*
X8260658Y-12328650D02*
X8289229Y-12328650D01*
X8289229Y-12328650D02*
X8308277Y-12338174D01*
X8308277Y-12338174D02*
X8317801Y-12357222D01*
X8317801Y-12357222D02*
X8317801Y-12461984D01*
X8317801Y-12357222D02*
X8327324Y-12338174D01*
X8327324Y-12338174D02*
X8346372Y-12328650D01*
X8346372Y-12328650D02*
X8374943Y-12328650D01*
X8374943Y-12328650D02*
X8393991Y-12338174D01*
X8393991Y-12338174D02*
X8403515Y-12357222D01*
X8403515Y-12357222D02*
X8403515Y-12461984D01*
X8793991Y-12252460D02*
X8622563Y-12509603D01*
X9051134Y-12261984D02*
X9070182Y-12261984D01*
X9070182Y-12261984D02*
X9089229Y-12271508D01*
X9089229Y-12271508D02*
X9098753Y-12281031D01*
X9098753Y-12281031D02*
X9108277Y-12300079D01*
X9108277Y-12300079D02*
X9117801Y-12338174D01*
X9117801Y-12338174D02*
X9117801Y-12385793D01*
X9117801Y-12385793D02*
X9108277Y-12423888D01*
X9108277Y-12423888D02*
X9098753Y-12442936D01*
X9098753Y-12442936D02*
X9089229Y-12452460D01*
X9089229Y-12452460D02*
X9070182Y-12461984D01*
X9070182Y-12461984D02*
X9051134Y-12461984D01*
X9051134Y-12461984D02*
X9032087Y-12452460D01*
X9032087Y-12452460D02*
X9022563Y-12442936D01*
X9022563Y-12442936D02*
X9013039Y-12423888D01*
X9013039Y-12423888D02*
X9003515Y-12385793D01*
X9003515Y-12385793D02*
X9003515Y-12338174D01*
X9003515Y-12338174D02*
X9013039Y-12300079D01*
X9013039Y-12300079D02*
X9022563Y-12281031D01*
X9022563Y-12281031D02*
X9032087Y-12271508D01*
X9032087Y-12271508D02*
X9051134Y-12261984D01*
X9203515Y-12442936D02*
X9213039Y-12452460D01*
X9213039Y-12452460D02*
X9203515Y-12461984D01*
X9203515Y-12461984D02*
X9193991Y-12452460D01*
X9193991Y-12452460D02*
X9203515Y-12442936D01*
X9203515Y-12442936D02*
X9203515Y-12461984D01*
X9336848Y-12261984D02*
X9355896Y-12261984D01*
X9355896Y-12261984D02*
X9374944Y-12271508D01*
X9374944Y-12271508D02*
X9384468Y-12281031D01*
X9384468Y-12281031D02*
X9393991Y-12300079D01*
X9393991Y-12300079D02*
X9403515Y-12338174D01*
X9403515Y-12338174D02*
X9403515Y-12385793D01*
X9403515Y-12385793D02*
X9393991Y-12423888D01*
X9393991Y-12423888D02*
X9384468Y-12442936D01*
X9384468Y-12442936D02*
X9374944Y-12452460D01*
X9374944Y-12452460D02*
X9355896Y-12461984D01*
X9355896Y-12461984D02*
X9336848Y-12461984D01*
X9336848Y-12461984D02*
X9317801Y-12452460D01*
X9317801Y-12452460D02*
X9308277Y-12442936D01*
X9308277Y-12442936D02*
X9298753Y-12423888D01*
X9298753Y-12423888D02*
X9289229Y-12385793D01*
X9289229Y-12385793D02*
X9289229Y-12338174D01*
X9289229Y-12338174D02*
X9298753Y-12300079D01*
X9298753Y-12300079D02*
X9308277Y-12281031D01*
X9308277Y-12281031D02*
X9317801Y-12271508D01*
X9317801Y-12271508D02*
X9336848Y-12261984D01*
X9470182Y-12261984D02*
X9593991Y-12261984D01*
X9593991Y-12261984D02*
X9527325Y-12338174D01*
X9527325Y-12338174D02*
X9555896Y-12338174D01*
X9555896Y-12338174D02*
X9574944Y-12347698D01*
X9574944Y-12347698D02*
X9584468Y-12357222D01*
X9584468Y-12357222D02*
X9593991Y-12376269D01*
X9593991Y-12376269D02*
X9593991Y-12423888D01*
X9593991Y-12423888D02*
X9584468Y-12442936D01*
X9584468Y-12442936D02*
X9574944Y-12452460D01*
X9574944Y-12452460D02*
X9555896Y-12461984D01*
X9555896Y-12461984D02*
X9498753Y-12461984D01*
X9498753Y-12461984D02*
X9479706Y-12452460D01*
X9479706Y-12452460D02*
X9470182Y-12442936D01*
X9689229Y-12461984D02*
X9727325Y-12461984D01*
X9727325Y-12461984D02*
X9746372Y-12452460D01*
X9746372Y-12452460D02*
X9755896Y-12442936D01*
X9755896Y-12442936D02*
X9774944Y-12414365D01*
X9774944Y-12414365D02*
X9784468Y-12376269D01*
X9784468Y-12376269D02*
X9784468Y-12300079D01*
X9784468Y-12300079D02*
X9774944Y-12281031D01*
X9774944Y-12281031D02*
X9765420Y-12271508D01*
X9765420Y-12271508D02*
X9746372Y-12261984D01*
X9746372Y-12261984D02*
X9708277Y-12261984D01*
X9708277Y-12261984D02*
X9689229Y-12271508D01*
X9689229Y-12271508D02*
X9679706Y-12281031D01*
X9679706Y-12281031D02*
X9670182Y-12300079D01*
X9670182Y-12300079D02*
X9670182Y-12347698D01*
X9670182Y-12347698D02*
X9679706Y-12366746D01*
X9679706Y-12366746D02*
X9689229Y-12376269D01*
X9689229Y-12376269D02*
X9708277Y-12385793D01*
X9708277Y-12385793D02*
X9746372Y-12385793D01*
X9746372Y-12385793D02*
X9765420Y-12376269D01*
X9765420Y-12376269D02*
X9774944Y-12366746D01*
X9774944Y-12366746D02*
X9784468Y-12347698D01*
X9955896Y-12328650D02*
X9955896Y-12461984D01*
X9908277Y-12252460D02*
X9860658Y-12395317D01*
X9860658Y-12395317D02*
X9984468Y-12395317D01*
X10051134Y-12261984D02*
X10051134Y-12300079D01*
X10127325Y-12261984D02*
X10127325Y-12300079D01*
X10422563Y-12538174D02*
X10413039Y-12528650D01*
X10413039Y-12528650D02*
X10393991Y-12500079D01*
X10393991Y-12500079D02*
X10384468Y-12481031D01*
X10384468Y-12481031D02*
X10374944Y-12452460D01*
X10374944Y-12452460D02*
X10365420Y-12404841D01*
X10365420Y-12404841D02*
X10365420Y-12366746D01*
X10365420Y-12366746D02*
X10374944Y-12319127D01*
X10374944Y-12319127D02*
X10384468Y-12290555D01*
X10384468Y-12290555D02*
X10393991Y-12271508D01*
X10393991Y-12271508D02*
X10413039Y-12242936D01*
X10413039Y-12242936D02*
X10422563Y-12233412D01*
X10479706Y-12261984D02*
X10603515Y-12261984D01*
X10603515Y-12261984D02*
X10536849Y-12338174D01*
X10536849Y-12338174D02*
X10565420Y-12338174D01*
X10565420Y-12338174D02*
X10584468Y-12347698D01*
X10584468Y-12347698D02*
X10593991Y-12357222D01*
X10593991Y-12357222D02*
X10603515Y-12376269D01*
X10603515Y-12376269D02*
X10603515Y-12423888D01*
X10603515Y-12423888D02*
X10593991Y-12442936D01*
X10593991Y-12442936D02*
X10584468Y-12452460D01*
X10584468Y-12452460D02*
X10565420Y-12461984D01*
X10565420Y-12461984D02*
X10508277Y-12461984D01*
X10508277Y-12461984D02*
X10489230Y-12452460D01*
X10489230Y-12452460D02*
X10479706Y-12442936D01*
X10727325Y-12261984D02*
X10746372Y-12261984D01*
X10746372Y-12261984D02*
X10765420Y-12271508D01*
X10765420Y-12271508D02*
X10774944Y-12281031D01*
X10774944Y-12281031D02*
X10784468Y-12300079D01*
X10784468Y-12300079D02*
X10793991Y-12338174D01*
X10793991Y-12338174D02*
X10793991Y-12385793D01*
X10793991Y-12385793D02*
X10784468Y-12423888D01*
X10784468Y-12423888D02*
X10774944Y-12442936D01*
X10774944Y-12442936D02*
X10765420Y-12452460D01*
X10765420Y-12452460D02*
X10746372Y-12461984D01*
X10746372Y-12461984D02*
X10727325Y-12461984D01*
X10727325Y-12461984D02*
X10708277Y-12452460D01*
X10708277Y-12452460D02*
X10698753Y-12442936D01*
X10698753Y-12442936D02*
X10689230Y-12423888D01*
X10689230Y-12423888D02*
X10679706Y-12385793D01*
X10679706Y-12385793D02*
X10679706Y-12338174D01*
X10679706Y-12338174D02*
X10689230Y-12300079D01*
X10689230Y-12300079D02*
X10698753Y-12281031D01*
X10698753Y-12281031D02*
X10708277Y-12271508D01*
X10708277Y-12271508D02*
X10727325Y-12261984D01*
X11032087Y-12461984D02*
X11032087Y-12261984D01*
X11117801Y-12461984D02*
X11117801Y-12357222D01*
X11117801Y-12357222D02*
X11108277Y-12338174D01*
X11108277Y-12338174D02*
X11089230Y-12328650D01*
X11089230Y-12328650D02*
X11060658Y-12328650D01*
X11060658Y-12328650D02*
X11041611Y-12338174D01*
X11041611Y-12338174D02*
X11032087Y-12347698D01*
X11241610Y-12461984D02*
X11222563Y-12452460D01*
X11222563Y-12452460D02*
X11213039Y-12442936D01*
X11213039Y-12442936D02*
X11203515Y-12423888D01*
X11203515Y-12423888D02*
X11203515Y-12366746D01*
X11203515Y-12366746D02*
X11213039Y-12347698D01*
X11213039Y-12347698D02*
X11222563Y-12338174D01*
X11222563Y-12338174D02*
X11241610Y-12328650D01*
X11241610Y-12328650D02*
X11270182Y-12328650D01*
X11270182Y-12328650D02*
X11289230Y-12338174D01*
X11289230Y-12338174D02*
X11298753Y-12347698D01*
X11298753Y-12347698D02*
X11308277Y-12366746D01*
X11308277Y-12366746D02*
X11308277Y-12423888D01*
X11308277Y-12423888D02*
X11298753Y-12442936D01*
X11298753Y-12442936D02*
X11289230Y-12452460D01*
X11289230Y-12452460D02*
X11270182Y-12461984D01*
X11270182Y-12461984D02*
X11241610Y-12461984D01*
X11422563Y-12461984D02*
X11403515Y-12452460D01*
X11403515Y-12452460D02*
X11393991Y-12433412D01*
X11393991Y-12433412D02*
X11393991Y-12261984D01*
X11574944Y-12452460D02*
X11555896Y-12461984D01*
X11555896Y-12461984D02*
X11517801Y-12461984D01*
X11517801Y-12461984D02*
X11498753Y-12452460D01*
X11498753Y-12452460D02*
X11489230Y-12433412D01*
X11489230Y-12433412D02*
X11489230Y-12357222D01*
X11489230Y-12357222D02*
X11498753Y-12338174D01*
X11498753Y-12338174D02*
X11517801Y-12328650D01*
X11517801Y-12328650D02*
X11555896Y-12328650D01*
X11555896Y-12328650D02*
X11574944Y-12338174D01*
X11574944Y-12338174D02*
X11584468Y-12357222D01*
X11584468Y-12357222D02*
X11584468Y-12376269D01*
X11584468Y-12376269D02*
X11489230Y-12395317D01*
X11660658Y-12452460D02*
X11679706Y-12461984D01*
X11679706Y-12461984D02*
X11717801Y-12461984D01*
X11717801Y-12461984D02*
X11736849Y-12452460D01*
X11736849Y-12452460D02*
X11746372Y-12433412D01*
X11746372Y-12433412D02*
X11746372Y-12423888D01*
X11746372Y-12423888D02*
X11736849Y-12404841D01*
X11736849Y-12404841D02*
X11717801Y-12395317D01*
X11717801Y-12395317D02*
X11689230Y-12395317D01*
X11689230Y-12395317D02*
X11670182Y-12385793D01*
X11670182Y-12385793D02*
X11660658Y-12366746D01*
X11660658Y-12366746D02*
X11660658Y-12357222D01*
X11660658Y-12357222D02*
X11670182Y-12338174D01*
X11670182Y-12338174D02*
X11689230Y-12328650D01*
X11689230Y-12328650D02*
X11717801Y-12328650D01*
X11717801Y-12328650D02*
X11736849Y-12338174D01*
X11813039Y-12538174D02*
X11822563Y-12528650D01*
X11822563Y-12528650D02*
X11841611Y-12500079D01*
X11841611Y-12500079D02*
X11851134Y-12481031D01*
X11851134Y-12481031D02*
X11860658Y-12452460D01*
X11860658Y-12452460D02*
X11870182Y-12404841D01*
X11870182Y-12404841D02*
X11870182Y-12366746D01*
X11870182Y-12366746D02*
X11860658Y-12319127D01*
X11860658Y-12319127D02*
X11851134Y-12290555D01*
X11851134Y-12290555D02*
X11841611Y-12271508D01*
X11841611Y-12271508D02*
X11822563Y-12242936D01*
X11822563Y-12242936D02*
X11813039Y-12233412D01*
D13*
X6831391Y-12673391D02*
X6831391Y-12595609D01*
X6753609Y-12595609D01*
X6753609Y-12673391D01*
X6831391Y-12673391D01*
D11*
X7213039Y-12725984D02*
X7098753Y-12725984D01*
X7155896Y-12725984D02*
X7155896Y-12525984D01*
X7155896Y-12525984D02*
X7136848Y-12554555D01*
X7136848Y-12554555D02*
X7117801Y-12573603D01*
X7117801Y-12573603D02*
X7098753Y-12583127D01*
X7298753Y-12706936D02*
X7308277Y-12716460D01*
X7308277Y-12716460D02*
X7298753Y-12725984D01*
X7298753Y-12725984D02*
X7289229Y-12716460D01*
X7289229Y-12716460D02*
X7298753Y-12706936D01*
X7298753Y-12706936D02*
X7298753Y-12725984D01*
X7498753Y-12725984D02*
X7384467Y-12725984D01*
X7441610Y-12725984D02*
X7441610Y-12525984D01*
X7441610Y-12525984D02*
X7422562Y-12554555D01*
X7422562Y-12554555D02*
X7403515Y-12573603D01*
X7403515Y-12573603D02*
X7384467Y-12583127D01*
X7622562Y-12525984D02*
X7641610Y-12525984D01*
X7641610Y-12525984D02*
X7660658Y-12535508D01*
X7660658Y-12535508D02*
X7670182Y-12545031D01*
X7670182Y-12545031D02*
X7679705Y-12564079D01*
X7679705Y-12564079D02*
X7689229Y-12602174D01*
X7689229Y-12602174D02*
X7689229Y-12649793D01*
X7689229Y-12649793D02*
X7679705Y-12687888D01*
X7679705Y-12687888D02*
X7670182Y-12706936D01*
X7670182Y-12706936D02*
X7660658Y-12716460D01*
X7660658Y-12716460D02*
X7641610Y-12725984D01*
X7641610Y-12725984D02*
X7622562Y-12725984D01*
X7622562Y-12725984D02*
X7603515Y-12716460D01*
X7603515Y-12716460D02*
X7593991Y-12706936D01*
X7593991Y-12706936D02*
X7584467Y-12687888D01*
X7584467Y-12687888D02*
X7574943Y-12649793D01*
X7574943Y-12649793D02*
X7574943Y-12602174D01*
X7574943Y-12602174D02*
X7584467Y-12564079D01*
X7584467Y-12564079D02*
X7593991Y-12545031D01*
X7593991Y-12545031D02*
X7603515Y-12535508D01*
X7603515Y-12535508D02*
X7622562Y-12525984D01*
X7813039Y-12525984D02*
X7832086Y-12525984D01*
X7832086Y-12525984D02*
X7851134Y-12535508D01*
X7851134Y-12535508D02*
X7860658Y-12545031D01*
X7860658Y-12545031D02*
X7870182Y-12564079D01*
X7870182Y-12564079D02*
X7879705Y-12602174D01*
X7879705Y-12602174D02*
X7879705Y-12649793D01*
X7879705Y-12649793D02*
X7870182Y-12687888D01*
X7870182Y-12687888D02*
X7860658Y-12706936D01*
X7860658Y-12706936D02*
X7851134Y-12716460D01*
X7851134Y-12716460D02*
X7832086Y-12725984D01*
X7832086Y-12725984D02*
X7813039Y-12725984D01*
X7813039Y-12725984D02*
X7793991Y-12716460D01*
X7793991Y-12716460D02*
X7784467Y-12706936D01*
X7784467Y-12706936D02*
X7774943Y-12687888D01*
X7774943Y-12687888D02*
X7765420Y-12649793D01*
X7765420Y-12649793D02*
X7765420Y-12602174D01*
X7765420Y-12602174D02*
X7774943Y-12564079D01*
X7774943Y-12564079D02*
X7784467Y-12545031D01*
X7784467Y-12545031D02*
X7793991Y-12535508D01*
X7793991Y-12535508D02*
X7813039Y-12525984D01*
X7965420Y-12725984D02*
X7965420Y-12592650D01*
X7965420Y-12611698D02*
X7974943Y-12602174D01*
X7974943Y-12602174D02*
X7993991Y-12592650D01*
X7993991Y-12592650D02*
X8022563Y-12592650D01*
X8022563Y-12592650D02*
X8041610Y-12602174D01*
X8041610Y-12602174D02*
X8051134Y-12621222D01*
X8051134Y-12621222D02*
X8051134Y-12725984D01*
X8051134Y-12621222D02*
X8060658Y-12602174D01*
X8060658Y-12602174D02*
X8079705Y-12592650D01*
X8079705Y-12592650D02*
X8108277Y-12592650D01*
X8108277Y-12592650D02*
X8127324Y-12602174D01*
X8127324Y-12602174D02*
X8136848Y-12621222D01*
X8136848Y-12621222D02*
X8136848Y-12725984D01*
X8232086Y-12725984D02*
X8232086Y-12592650D01*
X8232086Y-12611698D02*
X8241610Y-12602174D01*
X8241610Y-12602174D02*
X8260658Y-12592650D01*
X8260658Y-12592650D02*
X8289229Y-12592650D01*
X8289229Y-12592650D02*
X8308277Y-12602174D01*
X8308277Y-12602174D02*
X8317801Y-12621222D01*
X8317801Y-12621222D02*
X8317801Y-12725984D01*
X8317801Y-12621222D02*
X8327324Y-12602174D01*
X8327324Y-12602174D02*
X8346372Y-12592650D01*
X8346372Y-12592650D02*
X8374943Y-12592650D01*
X8374943Y-12592650D02*
X8393991Y-12602174D01*
X8393991Y-12602174D02*
X8403515Y-12621222D01*
X8403515Y-12621222D02*
X8403515Y-12725984D01*
X8793991Y-12516460D02*
X8622563Y-12773603D01*
X9051134Y-12525984D02*
X9070182Y-12525984D01*
X9070182Y-12525984D02*
X9089229Y-12535508D01*
X9089229Y-12535508D02*
X9098753Y-12545031D01*
X9098753Y-12545031D02*
X9108277Y-12564079D01*
X9108277Y-12564079D02*
X9117801Y-12602174D01*
X9117801Y-12602174D02*
X9117801Y-12649793D01*
X9117801Y-12649793D02*
X9108277Y-12687888D01*
X9108277Y-12687888D02*
X9098753Y-12706936D01*
X9098753Y-12706936D02*
X9089229Y-12716460D01*
X9089229Y-12716460D02*
X9070182Y-12725984D01*
X9070182Y-12725984D02*
X9051134Y-12725984D01*
X9051134Y-12725984D02*
X9032087Y-12716460D01*
X9032087Y-12716460D02*
X9022563Y-12706936D01*
X9022563Y-12706936D02*
X9013039Y-12687888D01*
X9013039Y-12687888D02*
X9003515Y-12649793D01*
X9003515Y-12649793D02*
X9003515Y-12602174D01*
X9003515Y-12602174D02*
X9013039Y-12564079D01*
X9013039Y-12564079D02*
X9022563Y-12545031D01*
X9022563Y-12545031D02*
X9032087Y-12535508D01*
X9032087Y-12535508D02*
X9051134Y-12525984D01*
X9203515Y-12706936D02*
X9213039Y-12716460D01*
X9213039Y-12716460D02*
X9203515Y-12725984D01*
X9203515Y-12725984D02*
X9193991Y-12716460D01*
X9193991Y-12716460D02*
X9203515Y-12706936D01*
X9203515Y-12706936D02*
X9203515Y-12725984D01*
X9336848Y-12525984D02*
X9355896Y-12525984D01*
X9355896Y-12525984D02*
X9374944Y-12535508D01*
X9374944Y-12535508D02*
X9384468Y-12545031D01*
X9384468Y-12545031D02*
X9393991Y-12564079D01*
X9393991Y-12564079D02*
X9403515Y-12602174D01*
X9403515Y-12602174D02*
X9403515Y-12649793D01*
X9403515Y-12649793D02*
X9393991Y-12687888D01*
X9393991Y-12687888D02*
X9384468Y-12706936D01*
X9384468Y-12706936D02*
X9374944Y-12716460D01*
X9374944Y-12716460D02*
X9355896Y-12725984D01*
X9355896Y-12725984D02*
X9336848Y-12725984D01*
X9336848Y-12725984D02*
X9317801Y-12716460D01*
X9317801Y-12716460D02*
X9308277Y-12706936D01*
X9308277Y-12706936D02*
X9298753Y-12687888D01*
X9298753Y-12687888D02*
X9289229Y-12649793D01*
X9289229Y-12649793D02*
X9289229Y-12602174D01*
X9289229Y-12602174D02*
X9298753Y-12564079D01*
X9298753Y-12564079D02*
X9308277Y-12545031D01*
X9308277Y-12545031D02*
X9317801Y-12535508D01*
X9317801Y-12535508D02*
X9336848Y-12525984D01*
X9574944Y-12592650D02*
X9574944Y-12725984D01*
X9527325Y-12516460D02*
X9479706Y-12659317D01*
X9479706Y-12659317D02*
X9603515Y-12659317D01*
X9660658Y-12525984D02*
X9784468Y-12525984D01*
X9784468Y-12525984D02*
X9717801Y-12602174D01*
X9717801Y-12602174D02*
X9746372Y-12602174D01*
X9746372Y-12602174D02*
X9765420Y-12611698D01*
X9765420Y-12611698D02*
X9774944Y-12621222D01*
X9774944Y-12621222D02*
X9784468Y-12640269D01*
X9784468Y-12640269D02*
X9784468Y-12687888D01*
X9784468Y-12687888D02*
X9774944Y-12706936D01*
X9774944Y-12706936D02*
X9765420Y-12716460D01*
X9765420Y-12716460D02*
X9746372Y-12725984D01*
X9746372Y-12725984D02*
X9689229Y-12725984D01*
X9689229Y-12725984D02*
X9670182Y-12716460D01*
X9670182Y-12716460D02*
X9660658Y-12706936D01*
X9851134Y-12525984D02*
X9974944Y-12525984D01*
X9974944Y-12525984D02*
X9908277Y-12602174D01*
X9908277Y-12602174D02*
X9936849Y-12602174D01*
X9936849Y-12602174D02*
X9955896Y-12611698D01*
X9955896Y-12611698D02*
X9965420Y-12621222D01*
X9965420Y-12621222D02*
X9974944Y-12640269D01*
X9974944Y-12640269D02*
X9974944Y-12687888D01*
X9974944Y-12687888D02*
X9965420Y-12706936D01*
X9965420Y-12706936D02*
X9955896Y-12716460D01*
X9955896Y-12716460D02*
X9936849Y-12725984D01*
X9936849Y-12725984D02*
X9879706Y-12725984D01*
X9879706Y-12725984D02*
X9860658Y-12716460D01*
X9860658Y-12716460D02*
X9851134Y-12706936D01*
X10051134Y-12525984D02*
X10051134Y-12564079D01*
X10127325Y-12525984D02*
X10127325Y-12564079D01*
X10422563Y-12802174D02*
X10413039Y-12792650D01*
X10413039Y-12792650D02*
X10393991Y-12764079D01*
X10393991Y-12764079D02*
X10384468Y-12745031D01*
X10384468Y-12745031D02*
X10374944Y-12716460D01*
X10374944Y-12716460D02*
X10365420Y-12668841D01*
X10365420Y-12668841D02*
X10365420Y-12630746D01*
X10365420Y-12630746D02*
X10374944Y-12583127D01*
X10374944Y-12583127D02*
X10384468Y-12554555D01*
X10384468Y-12554555D02*
X10393991Y-12535508D01*
X10393991Y-12535508D02*
X10413039Y-12506936D01*
X10413039Y-12506936D02*
X10422563Y-12497412D01*
X10584468Y-12592650D02*
X10584468Y-12725984D01*
X10536849Y-12516460D02*
X10489230Y-12659317D01*
X10489230Y-12659317D02*
X10613039Y-12659317D01*
X10841611Y-12725984D02*
X10841611Y-12525984D01*
X10927325Y-12725984D02*
X10927325Y-12621222D01*
X10927325Y-12621222D02*
X10917801Y-12602174D01*
X10917801Y-12602174D02*
X10898753Y-12592650D01*
X10898753Y-12592650D02*
X10870182Y-12592650D01*
X10870182Y-12592650D02*
X10851134Y-12602174D01*
X10851134Y-12602174D02*
X10841611Y-12611698D01*
X11051134Y-12725984D02*
X11032087Y-12716460D01*
X11032087Y-12716460D02*
X11022563Y-12706936D01*
X11022563Y-12706936D02*
X11013039Y-12687888D01*
X11013039Y-12687888D02*
X11013039Y-12630746D01*
X11013039Y-12630746D02*
X11022563Y-12611698D01*
X11022563Y-12611698D02*
X11032087Y-12602174D01*
X11032087Y-12602174D02*
X11051134Y-12592650D01*
X11051134Y-12592650D02*
X11079706Y-12592650D01*
X11079706Y-12592650D02*
X11098753Y-12602174D01*
X11098753Y-12602174D02*
X11108277Y-12611698D01*
X11108277Y-12611698D02*
X11117801Y-12630746D01*
X11117801Y-12630746D02*
X11117801Y-12687888D01*
X11117801Y-12687888D02*
X11108277Y-12706936D01*
X11108277Y-12706936D02*
X11098753Y-12716460D01*
X11098753Y-12716460D02*
X11079706Y-12725984D01*
X11079706Y-12725984D02*
X11051134Y-12725984D01*
X11232087Y-12725984D02*
X11213039Y-12716460D01*
X11213039Y-12716460D02*
X11203515Y-12697412D01*
X11203515Y-12697412D02*
X11203515Y-12525984D01*
X11384468Y-12716460D02*
X11365420Y-12725984D01*
X11365420Y-12725984D02*
X11327325Y-12725984D01*
X11327325Y-12725984D02*
X11308277Y-12716460D01*
X11308277Y-12716460D02*
X11298753Y-12697412D01*
X11298753Y-12697412D02*
X11298753Y-12621222D01*
X11298753Y-12621222D02*
X11308277Y-12602174D01*
X11308277Y-12602174D02*
X11327325Y-12592650D01*
X11327325Y-12592650D02*
X11365420Y-12592650D01*
X11365420Y-12592650D02*
X11384468Y-12602174D01*
X11384468Y-12602174D02*
X11393991Y-12621222D01*
X11393991Y-12621222D02*
X11393991Y-12640269D01*
X11393991Y-12640269D02*
X11298753Y-12659317D01*
X11470182Y-12716460D02*
X11489230Y-12725984D01*
X11489230Y-12725984D02*
X11527325Y-12725984D01*
X11527325Y-12725984D02*
X11546372Y-12716460D01*
X11546372Y-12716460D02*
X11555896Y-12697412D01*
X11555896Y-12697412D02*
X11555896Y-12687888D01*
X11555896Y-12687888D02*
X11546372Y-12668841D01*
X11546372Y-12668841D02*
X11527325Y-12659317D01*
X11527325Y-12659317D02*
X11498753Y-12659317D01*
X11498753Y-12659317D02*
X11479706Y-12649793D01*
X11479706Y-12649793D02*
X11470182Y-12630746D01*
X11470182Y-12630746D02*
X11470182Y-12621222D01*
X11470182Y-12621222D02*
X11479706Y-12602174D01*
X11479706Y-12602174D02*
X11498753Y-12592650D01*
X11498753Y-12592650D02*
X11527325Y-12592650D01*
X11527325Y-12592650D02*
X11546372Y-12602174D01*
X11622563Y-12802174D02*
X11632087Y-12792650D01*
X11632087Y-12792650D02*
X11651134Y-12764079D01*
X11651134Y-12764079D02*
X11660658Y-12745031D01*
X11660658Y-12745031D02*
X11670182Y-12716460D01*
X11670182Y-12716460D02*
X11679706Y-12668841D01*
X11679706Y-12668841D02*
X11679706Y-12630746D01*
X11679706Y-12630746D02*
X11670182Y-12583127D01*
X11670182Y-12583127D02*
X11660658Y-12554555D01*
X11660658Y-12554555D02*
X11651134Y-12535508D01*
X11651134Y-12535508D02*
X11632087Y-12506936D01*
X11632087Y-12506936D02*
X11622563Y-12497412D01*
M02*
