%TF.GenerationSoftware,KiCad,Pcbnew,9.0.1*%
%TF.CreationDate,2025-04-21T17:52:03+02:00*%
%TF.ProjectId,learn_pcb,6c656172-6e5f-4706-9362-2e6b69636164,rev?*%
%TF.SameCoordinates,Original*%
%TF.FileFunction,Drillmap*%
%TF.FilePolarity,Positive*%
%FSLAX45Y45*%
G04 Gerber Fmt 4.5, Leading zero omitted, Abs format (unit mm)*
G04 Created by KiCad (PCBNEW 9.0.1) date 2025-04-21 17:52:03*
%MOMM*%
%LPD*%
G01*
G04 APERTURE LIST*
%ADD10C,0.050000*%
%ADD11C,0.200000*%
G04 APERTURE END LIST*
D10*
X14100000Y-5000000D02*
X6850000Y-5000000D01*
X14100000Y-11200000D02*
X14100000Y-5000000D01*
X6850000Y-11200000D02*
X14100000Y-11200000D01*
X6850000Y-5000000D02*
X6850000Y-11200000D01*
D11*
X7108277Y-11513984D02*
X7108277Y-11313984D01*
X7108277Y-11313984D02*
X7155896Y-11313984D01*
X7155896Y-11313984D02*
X7184467Y-11323508D01*
X7184467Y-11323508D02*
X7203515Y-11342555D01*
X7203515Y-11342555D02*
X7213039Y-11361603D01*
X7213039Y-11361603D02*
X7222562Y-11399698D01*
X7222562Y-11399698D02*
X7222562Y-11428269D01*
X7222562Y-11428269D02*
X7213039Y-11466365D01*
X7213039Y-11466365D02*
X7203515Y-11485412D01*
X7203515Y-11485412D02*
X7184467Y-11504460D01*
X7184467Y-11504460D02*
X7155896Y-11513984D01*
X7155896Y-11513984D02*
X7108277Y-11513984D01*
X7308277Y-11513984D02*
X7308277Y-11380650D01*
X7308277Y-11418746D02*
X7317801Y-11399698D01*
X7317801Y-11399698D02*
X7327324Y-11390174D01*
X7327324Y-11390174D02*
X7346372Y-11380650D01*
X7346372Y-11380650D02*
X7365420Y-11380650D01*
X7432086Y-11513984D02*
X7432086Y-11380650D01*
X7432086Y-11313984D02*
X7422562Y-11323508D01*
X7422562Y-11323508D02*
X7432086Y-11333031D01*
X7432086Y-11333031D02*
X7441610Y-11323508D01*
X7441610Y-11323508D02*
X7432086Y-11313984D01*
X7432086Y-11313984D02*
X7432086Y-11333031D01*
X7555896Y-11513984D02*
X7536848Y-11504460D01*
X7536848Y-11504460D02*
X7527324Y-11485412D01*
X7527324Y-11485412D02*
X7527324Y-11313984D01*
X7660658Y-11513984D02*
X7641610Y-11504460D01*
X7641610Y-11504460D02*
X7632086Y-11485412D01*
X7632086Y-11485412D02*
X7632086Y-11313984D01*
X7889229Y-11513984D02*
X7889229Y-11313984D01*
X7889229Y-11313984D02*
X7955896Y-11456841D01*
X7955896Y-11456841D02*
X8022562Y-11313984D01*
X8022562Y-11313984D02*
X8022562Y-11513984D01*
X8203515Y-11513984D02*
X8203515Y-11409222D01*
X8203515Y-11409222D02*
X8193991Y-11390174D01*
X8193991Y-11390174D02*
X8174943Y-11380650D01*
X8174943Y-11380650D02*
X8136848Y-11380650D01*
X8136848Y-11380650D02*
X8117801Y-11390174D01*
X8203515Y-11504460D02*
X8184467Y-11513984D01*
X8184467Y-11513984D02*
X8136848Y-11513984D01*
X8136848Y-11513984D02*
X8117801Y-11504460D01*
X8117801Y-11504460D02*
X8108277Y-11485412D01*
X8108277Y-11485412D02*
X8108277Y-11466365D01*
X8108277Y-11466365D02*
X8117801Y-11447317D01*
X8117801Y-11447317D02*
X8136848Y-11437793D01*
X8136848Y-11437793D02*
X8184467Y-11437793D01*
X8184467Y-11437793D02*
X8203515Y-11428269D01*
X8298753Y-11380650D02*
X8298753Y-11580650D01*
X8298753Y-11390174D02*
X8317801Y-11380650D01*
X8317801Y-11380650D02*
X8355896Y-11380650D01*
X8355896Y-11380650D02*
X8374943Y-11390174D01*
X8374943Y-11390174D02*
X8384467Y-11399698D01*
X8384467Y-11399698D02*
X8393991Y-11418746D01*
X8393991Y-11418746D02*
X8393991Y-11475888D01*
X8393991Y-11475888D02*
X8384467Y-11494936D01*
X8384467Y-11494936D02*
X8374943Y-11504460D01*
X8374943Y-11504460D02*
X8355896Y-11513984D01*
X8355896Y-11513984D02*
X8317801Y-11513984D01*
X8317801Y-11513984D02*
X8298753Y-11504460D01*
X8479705Y-11494936D02*
X8489229Y-11504460D01*
X8489229Y-11504460D02*
X8479705Y-11513984D01*
X8479705Y-11513984D02*
X8470182Y-11504460D01*
X8470182Y-11504460D02*
X8479705Y-11494936D01*
X8479705Y-11494936D02*
X8479705Y-11513984D01*
X8479705Y-11390174D02*
X8489229Y-11399698D01*
X8489229Y-11399698D02*
X8479705Y-11409222D01*
X8479705Y-11409222D02*
X8470182Y-11399698D01*
X8470182Y-11399698D02*
X8479705Y-11390174D01*
X8479705Y-11390174D02*
X8479705Y-11409222D01*
M02*
