M48
; DRILL file {KiCad 9.0.1} date 2025-04-21T17:52:03+0200
; FORMAT={-:-/ absolute / inch / decimal}
; #@! TF.CreationDate,2025-04-21T17:52:03+02:00
; #@! TF.GenerationSoftware,Kicad,Pcbnew,9.0.1
; #@! TF.FileFunction,Plated,1,2,PTH
FMAT,2
INCH
; #@! TA.AperFunction,Plated,PTH,ComponentDrill
T1C0.0315
; #@! TA.AperFunction,Plated,PTH,ComponentDrill
T2C0.0354
; #@! TA.AperFunction,Plated,PTH,ComponentDrill
T3C0.0394
; #@! TA.AperFunction,Plated,PTH,ComponentDrill
T4C0.0433
%
G90
G05
T1
X4.1594Y-2.2835
X4.6594Y-2.2835
T2
X5.0Y-2.2835
X5.1Y-2.2835
T3
X3.1205Y-2.3402
X3.1205Y-2.4402
X3.1205Y-2.5402
X3.1205Y-2.6402
X3.1205Y-2.7402
X3.1205Y-2.8402
X3.1205Y-2.9402
X3.1205Y-3.0402
X3.1205Y-3.1402
X3.1205Y-3.2402
X3.1205Y-3.3402
X3.1205Y-3.4402
X3.1205Y-3.5402
X3.1205Y-3.6402
X3.1205Y-3.7402
X3.7205Y-2.3402
X3.7205Y-2.4402
X3.7205Y-2.5402
X3.7205Y-2.6402
X3.7205Y-2.7402
X3.7205Y-2.8402
X3.7205Y-2.9402
X3.7205Y-3.0402
X3.7205Y-3.1402
X3.7205Y-3.2402
X3.7205Y-3.3402
X3.7205Y-3.4402
X3.7205Y-3.5402
X3.7205Y-3.6402
X3.7205Y-3.7402
T4
X4.2815Y-2.8445
X4.2815Y-3.0217
X4.5374Y-2.8445
X4.5374Y-3.0217
M30
