%TF.GenerationSoftware,KiCad,Pcbnew,9.0.1*%
%TF.CreationDate,2025-09-07T10:57:27+02:00*%
%TF.ProjectId,CCS,4343532e-6b69-4636-9164-5f7063625858,rev?*%
%TF.SameCoordinates,Original*%
%TF.FileFunction,Copper,L2,Bot*%
%TF.FilePolarity,Positive*%
%FSLAX46Y46*%
G04 Gerber Fmt 4.6, Leading zero omitted, Abs format (unit mm)*
G04 Created by KiCad (PCBNEW 9.0.1) date 2025-09-07 10:57:27*
%MOMM*%
%LPD*%
G01*
G04 APERTURE LIST*
%TA.AperFunction,ComponentPad*%
%ADD10C,2.600000*%
%TD*%
%TA.AperFunction,ComponentPad*%
%ADD11C,1.600000*%
%TD*%
%TA.AperFunction,ComponentPad*%
%ADD12O,1.600000X1.600000*%
%TD*%
%TA.AperFunction,ComponentPad*%
%ADD13R,1.905000X2.000000*%
%TD*%
%TA.AperFunction,ComponentPad*%
%ADD14O,1.905000X2.000000*%
%TD*%
%TA.AperFunction,ComponentPad*%
%ADD15R,1.600000X1.600000*%
%TD*%
%TA.AperFunction,Conductor*%
%ADD16C,0.200000*%
%TD*%
G04 APERTURE END LIST*
D10*
%TO.P,TP2,1,1*%
%TO.N,Net-(R10-Pad1)*%
X72500000Y-65000000D03*
%TD*%
D11*
%TO.P,R3,1*%
%TO.N,Net-(Q3-D)*%
X59190000Y-42280000D03*
D12*
%TO.P,R3,2*%
%TO.N,Net-(Q3-S)*%
X69350000Y-42280000D03*
%TD*%
D13*
%TO.P,Q3,1,G*%
%TO.N,Net-(Q3-G)*%
X84960000Y-42500000D03*
D14*
%TO.P,Q3,2,D*%
%TO.N,Net-(Q3-D)*%
X87500000Y-42500000D03*
%TO.P,Q3,3,S*%
%TO.N,Net-(Q3-S)*%
X90040000Y-42500000D03*
%TD*%
D13*
%TO.P,U5,1,ADJ*%
%TO.N,Net-(U5-ADJ)*%
X156920000Y-47500000D03*
D14*
%TO.P,U5,2,VO*%
%TO.N,Net-(U5-VO)*%
X159460000Y-47500000D03*
%TO.P,U5,3,VI*%
%TO.N,Net-(U5-VI)*%
X162000000Y-47500000D03*
%TD*%
D13*
%TO.P,Q4,1,G*%
%TO.N,Net-(Q4-G)*%
X84920000Y-55000000D03*
D14*
%TO.P,Q4,2,D*%
%TO.N,Net-(Q3-G)*%
X87460000Y-55000000D03*
%TO.P,Q4,3,S*%
%TO.N,Net-(Q4-S)*%
X90000000Y-55000000D03*
%TD*%
D11*
%TO.P,R15,1*%
%TO.N,Net-(U5-VI)*%
X142420000Y-55000000D03*
D12*
%TO.P,R15,2*%
%TO.N,Net-(U5-ADJ)*%
X152580000Y-55000000D03*
%TD*%
D11*
%TO.P,C3,1*%
%TO.N,Net-(Q3-D)*%
X75000000Y-45000000D03*
%TO.P,C3,2*%
%TO.N,Net-(Q3-S)*%
X77500000Y-45000000D03*
%TD*%
D13*
%TO.P,U4,1,ADJ*%
%TO.N,Net-(U4-ADJ)*%
X121920000Y-47250000D03*
D14*
%TO.P,U4,2,VO*%
%TO.N,Net-(U4-VO)*%
X124460000Y-47250000D03*
%TO.P,U4,3,VI*%
%TO.N,Net-(U4-VI)*%
X127000000Y-47250000D03*
%TD*%
D10*
%TO.P,TP4,1,1*%
%TO.N,Net-(U4-ADJ)*%
X117000000Y-64750000D03*
%TD*%
D15*
%TO.P,C8,1*%
%TO.N,Net-(U4-VI)*%
X107500000Y-47250000D03*
D11*
%TO.P,C8,2*%
%TO.N,Net-(U4-ADJ)*%
X109500000Y-47250000D03*
%TD*%
%TO.P,R9,1*%
%TO.N,Net-(Q4-G)*%
X59190000Y-50380000D03*
D12*
%TO.P,R9,2*%
%TO.N,Net-(R10-Pad1)*%
X69350000Y-50380000D03*
%TD*%
D10*
%TO.P,TP6,1,1*%
%TO.N,Net-(U5-ADJ)*%
X152000000Y-64750000D03*
%TD*%
%TO.P,TP1,1,1*%
%TO.N,Net-(Q3-D)*%
X85000000Y-65000000D03*
%TD*%
D11*
%TO.P,R8,1*%
%TO.N,Net-(Q4-G)*%
X59190000Y-46330000D03*
D12*
%TO.P,R8,2*%
%TO.N,Net-(Q3-S)*%
X69350000Y-46330000D03*
%TD*%
D10*
%TO.P,TP3,1,1*%
%TO.N,Net-(U4-VO)*%
X127000000Y-64750000D03*
%TD*%
D11*
%TO.P,R14,1*%
%TO.N,Net-(U4-VI)*%
X109340000Y-54750000D03*
D12*
%TO.P,R14,2*%
%TO.N,Net-(U4-ADJ)*%
X119500000Y-54750000D03*
%TD*%
D11*
%TO.P,C4,1*%
%TO.N,Net-(Q4-G)*%
X75000000Y-52500000D03*
%TO.P,C4,2*%
%TO.N,Net-(Q4-S)*%
X77500000Y-52500000D03*
%TD*%
D15*
%TO.P,C9,1*%
%TO.N,Net-(U5-VI)*%
X142500000Y-47500000D03*
D11*
%TO.P,C9,2*%
%TO.N,Net-(U5-ADJ)*%
X144500000Y-47500000D03*
%TD*%
%TO.P,R10,1*%
%TO.N,Net-(R10-Pad1)*%
X59190000Y-54430000D03*
D12*
%TO.P,R10,2*%
%TO.N,Net-(Q4-S)*%
X69350000Y-54430000D03*
%TD*%
D10*
%TO.P,TP5,1,1*%
%TO.N,Net-(U5-VO)*%
X162000000Y-64750000D03*
%TD*%
D16*
%TO.N,Net-(Q3-S)*%
X87540000Y-45000000D02*
X77500000Y-45000000D01*
X90040000Y-42500000D02*
X87540000Y-45000000D01*
%TO.N,Net-(Q4-S)*%
X77500000Y-52500000D02*
X75570000Y-54430000D01*
X90000000Y-55000000D02*
X87500000Y-52500000D01*
X75570000Y-54430000D02*
X69350000Y-54430000D01*
X87500000Y-52500000D02*
X77500000Y-52500000D01*
%TO.N,Net-(U4-ADJ)*%
X121920000Y-47250000D02*
X121920000Y-52330000D01*
X119500000Y-54750000D02*
X119500000Y-62250000D01*
X121920000Y-52330000D02*
X119500000Y-54750000D01*
X119500000Y-62250000D02*
X117000000Y-64750000D01*
%TO.N,Net-(U5-ADJ)*%
X156920000Y-47500000D02*
X156920000Y-50660000D01*
X152580000Y-64170000D02*
X152000000Y-64750000D01*
X156920000Y-50660000D02*
X152580000Y-55000000D01*
X152580000Y-55000000D02*
X152580000Y-64170000D01*
%TO.N,Net-(U4-VO)*%
X124460000Y-47250000D02*
X124460000Y-62210000D01*
X124460000Y-62210000D02*
X127000000Y-64750000D01*
%TO.N,Net-(U5-VO)*%
X159460000Y-62210000D02*
X162000000Y-64750000D01*
X159460000Y-47500000D02*
X159460000Y-62210000D01*
%TD*%
M02*
