M48
; DRILL file {KiCad 9.0.1} date 2025-09-08T01:12:39+0200
; FORMAT={-:-/ absolute / inch / decimal}
; #@! TF.CreationDate,2025-09-08T01:12:39+02:00
; #@! TF.GenerationSoftware,Kicad,Pcbnew,9.0.1
; #@! TF.FileFunction,Plated,1,2,PTH
FMAT,2
INCH
; #@! TA.AperFunction,Plated,PTH,ComponentDrill
T1C0.0315
; #@! TA.AperFunction,Plated,PTH,ComponentDrill
T2C0.0433
; #@! TA.AperFunction,Plated,PTH,ComponentDrill
T3C0.0512
%
G90
G05
T1
X2.3303Y-1.6646
X2.3303Y-1.824
X2.3303Y-1.9835
X2.3303Y-2.1429
X2.7303Y-1.6646
X2.7303Y-1.824
X2.7303Y-1.9835
X2.7303Y-2.1429
X2.9528Y-1.7717
X2.9528Y-2.0669
X3.0512Y-1.7717
X3.0512Y-2.0669
X4.2323Y-1.8602
X4.3047Y-2.1555
X4.311Y-1.8602
X4.7047Y-2.1555
X5.6071Y-2.1654
X5.6102Y-1.8701
X5.689Y-1.8701
X6.0071Y-2.1654
T2
X3.3433Y-2.1654
X3.3449Y-1.6732
X3.4433Y-2.1654
X3.4449Y-1.6732
X3.5433Y-2.1654
X3.5449Y-1.6732
X4.8Y-1.8602
X4.9Y-1.8602
X5.0Y-1.8602
X6.178Y-1.8701
X6.278Y-1.8701
X6.378Y-1.8701
T3
X2.8543Y-2.5591
X3.3465Y-2.5591
X4.6063Y-2.5492
X5.0Y-2.5492
X5.9843Y-2.5492
X6.378Y-2.5492
M30
